<?xml version="1.0" encoding="utf-8" standalone="no"?>
<!DOCTYPE svg PUBLIC "-//W3C//DTD SVG 1.1//EN"
  "http://www.w3.org/Graphics/SVG/1.1/DTD/svg11.dtd">
<!-- Created with matplotlib (http://matplotlib.org/) -->
<svg height="432pt" version="1.1" viewBox="0 0 576 432" width="576pt" xmlns="http://www.w3.org/2000/svg" xmlns:xlink="http://www.w3.org/1999/xlink">
 <defs>
  <style type="text/css">
*{stroke-linecap:butt;stroke-linejoin:round;stroke-miterlimit:100000;}
  </style>
 </defs>
 <g id="figure_1">
  <g id="patch_1">
   <path d="M 0 432 
L 576 432 
L 576 0 
L 0 0 
z
" style="fill:#ffffff;"/>
  </g>
  <g id="axes_1">
   <g id="patch_2">
    <path d="M 72 388.8 
L 518.4 388.8 
L 518.4 43.2 
L 72 43.2 
z
" style="fill:#ffffff;"/>
   </g>
   <g id="line2d_1">
    <path clip-path="url(#pd91d97ed6a)" d="M 72 388.8 
L 183.6 388.8 
L 184.344 388.422707 
L 205.176 388.422707 
L 205.92 388.045415 
L 210.384 388.045415 
L 211.128 387.668122 
L 216.336 387.668122 
L 217.08 387.29083 
L 219.312 387.29083 
L 220.056 386.913537 
L 223.776 386.913537 
L 224.52 386.536245 
L 225.264 386.536245 
L 226.008 386.158952 
L 227.496 386.158952 
L 228.24 385.781659 
L 230.472 385.781659 
L 231.216 385.404367 
L 231.96 385.404367 
L 232.704 385.027074 
L 233.448 385.027074 
L 234.192 384.649782 
L 234.936 384.649782 
L 235.68 384.272489 
L 236.424 384.272489 
L 237.168 383.895197 
L 240.144 383.895197 
L 240.888 383.517904 
L 241.632 381.631441 
L 242.376 378.235808 
L 243.12 376.726638 
L 243.864 376.349345 
L 244.608 374.840175 
L 245.352 374.462882 
L 246.096 372.576419 
L 246.84 372.199127 
L 247.584 371.444541 
L 249.816 370.312664 
L 250.56 363.521397 
L 251.304 362.38952 
L 252.048 350.69345 
L 252.792 336.356332 
L 253.536 335.601747 
L 254.28 327.30131 
L 255.024 326.924017 
L 255.768 326.169432 
L 258.744 324.660262 
L 259.488 323.905677 
L 260.232 322.773799 
L 260.976 322.396507 
L 262.464 320.887336 
L 266.184 319.000873 
L 266.928 318.246288 
L 267.672 317.868996 
L 268.416 317.11441 
L 269.904 316.359825 
L 270.648 315.60524 
L 271.392 315.227948 
L 272.136 312.5869 
L 273.624 306.172926 
L 275.856 303.90917 
L 276.6 303.531878 
L 277.344 299.758952 
L 278.088 299.381659 
L 278.832 297.117904 
L 280.32 280.517031 
L 281.064 269.198253 
L 282.552 268.443668 
L 283.296 267.689083 
L 285.528 242.41048 
L 286.272 232.978166 
L 287.016 219.395633 
L 288.504 218.641048 
L 289.248 211.472489 
L 290.736 210.717904 
L 291.48 209.963319 
L 292.224 209.586026 
L 293.712 208.076856 
L 294.456 207.699563 
L 295.2 206.944978 
L 301.152 203.926638 
L 301.896 203.172052 
L 302.64 202.79476 
L 303.384 190.721397 
L 304.128 190.344105 
L 304.872 178.270742 
L 305.616 177.89345 
L 306.36 164.68821 
L 307.104 154.878603 
L 308.592 154.124017 
L 309.336 142.80524 
L 314.544 140.164192 
L 315.288 139.409607 
L 318.264 137.900437 
L 319.008 137.145852 
L 322.728 135.259389 
L 324.216 133.750218 
L 335.376 128.09083 
L 336.12 126.581659 
L 337.608 125.827074 
L 338.352 124.695197 
L 339.096 123.940611 
L 342.816 122.054148 
L 343.56 120.922271 
L 354.72 115.262882 
L 355.464 114.131004 
L 358.44 112.621834 
L 359.184 111.867249 
L 388.2 97.152838 
L 388.944 97.152838 
L 389.688 96.398253 
L 391.176 95.643668 
L 391.92 95.643668 
L 392.664 94.889083 
L 400.848 90.738865 
L 401.592 90.738865 
L 402.336 89.984279 
L 403.08 89.984279 
L 403.824 89.229694 
L 404.568 88.852402 
L 405.312 88.852402 
L 406.056 88.097817 
L 406.8 88.097817 
L 407.544 87.343231 
L 408.288 86.965939 
L 409.032 85.834061 
L 410.52 85.834061 
L 411.264 84.702183 
L 412.752 83.947598 
L 413.496 83.947598 
L 414.24 83.570306 
L 414.984 82.815721 
L 415.728 82.815721 
L 416.472 82.061135 
L 418.704 80.929258 
L 420.936 80.929258 
L 421.68 79.420087 
L 422.424 79.420087 
L 423.168 78.665502 
L 425.4 78.665502 
L 426.144 77.156332 
L 428.376 77.156332 
L 429.12 75.647162 
L 429.864 75.647162 
L 430.608 74.892576 
L 433.584 73.383406 
L 435.072 73.383406 
L 435.816 71.874236 
L 436.56 71.496943 
L 441.024 71.496943 
L 441.768 68.478603 
L 444 68.478603 
L 444.744 66.59214 
L 452.928 66.59214 
L 453.672 61.687336 
L 461.112 61.687336 
L 461.856 61.310044 
L 462.6 55.650655 
L 484.92 55.650655 
L 485.664 55.273362 
L 485.664 55.273362 
" style="fill:none;stroke:#0000ff;stroke-linecap:square;"/>
   </g>
   <g id="line2d_2">
    <path clip-path="url(#pd91d97ed6a)" d="M 72 388.8 
L 153.84 388.8 
L 154.584 388.422707 
L 166.488 388.422707 
L 167.232 388.045415 
L 170.952 388.045415 
L 171.696 387.668122 
L 173.928 387.668122 
L 175.416 386.913537 
L 176.16 386.158952 
L 176.904 386.158952 
L 177.648 385.027074 
L 178.392 383.140611 
L 179.136 376.349345 
L 179.88 371.444541 
L 180.624 369.935371 
L 181.368 351.825328 
L 182.112 347.675109 
L 182.856 342.393013 
L 183.6 332.206114 
L 185.088 317.491703 
L 185.832 313.718777 
L 186.576 312.209607 
L 187.32 301.268122 
L 188.064 237.128384 
L 188.808 229.582533 
L 189.552 225.055022 
L 190.296 214.49083 
L 191.04 212.604367 
L 191.784 209.586026 
L 192.528 209.586026 
L 193.272 209.208734 
L 194.016 205.435808 
L 194.76 203.926638 
L 195.504 195.248908 
L 196.248 194.494323 
L 196.992 184.684716 
L 197.736 176.761572 
L 198.48 174.875109 
L 199.224 169.215721 
L 199.968 169.215721 
L 200.712 168.083843 
L 201.456 167.329258 
L 202.2 163.179039 
L 203.688 162.424454 
L 204.432 158.274236 
L 205.176 157.519651 
L 205.92 155.633188 
L 206.664 154.878603 
L 207.408 153.746725 
L 208.152 153.746725 
L 209.64 152.99214 
L 211.128 152.99214 
L 211.872 151.860262 
L 212.616 151.860262 
L 213.36 150.351092 
L 214.104 149.973799 
L 214.848 147.710044 
L 215.592 147.332751 
L 216.336 146.578166 
L 217.824 145.823581 
L 218.568 144.691703 
L 219.312 143.937118 
L 220.8 143.937118 
L 221.544 142.427948 
L 222.288 142.050655 
L 223.032 141.29607 
L 223.776 139.7869 
L 224.52 139.032314 
L 225.264 138.655022 
L 226.008 138.655022 
L 226.752 138.277729 
L 227.496 138.277729 
L 228.24 137.900437 
L 229.728 137.900437 
L 230.472 137.523144 
L 231.96 137.523144 
L 232.704 136.768559 
L 234.936 135.636681 
L 235.68 135.636681 
L 236.424 134.127511 
L 237.168 134.127511 
L 238.656 133.372926 
L 239.4 133.372926 
L 240.144 132.618341 
L 240.888 132.241048 
L 241.632 132.241048 
L 242.376 131.863755 
L 243.12 131.863755 
L 243.864 131.486463 
L 244.608 131.486463 
L 246.096 130.731878 
L 248.328 130.731878 
L 249.072 130.354585 
L 250.56 130.354585 
L 252.048 129.6 
L 254.28 129.6 
L 255.024 129.222707 
L 255.768 128.468122 
L 256.512 128.468122 
L 257.256 127.336245 
L 258 127.336245 
L 260.232 126.204367 
L 260.976 126.204367 
L 261.72 125.827074 
L 263.952 125.827074 
L 264.696 125.449782 
L 265.44 125.449782 
L 266.184 125.072489 
L 266.928 125.072489 
L 267.672 124.695197 
L 268.416 124.695197 
L 269.16 123.940611 
L 269.904 123.940611 
L 270.648 123.563319 
L 271.392 123.563319 
L 272.136 122.808734 
L 272.88 122.808734 
L 273.624 122.431441 
L 274.368 122.431441 
L 275.112 121.299563 
L 275.856 120.922271 
L 276.6 120.922271 
L 277.344 120.544978 
L 278.832 120.544978 
L 279.576 120.167686 
L 280.32 120.167686 
L 281.064 119.4131 
L 282.552 119.4131 
L 283.296 119.035808 
L 285.528 119.035808 
L 287.016 118.281223 
L 287.76 118.281223 
L 288.504 117.90393 
L 289.248 117.90393 
L 290.736 117.149345 
L 292.224 117.149345 
L 292.968 116.772052 
L 293.712 116.772052 
L 294.456 116.39476 
L 295.2 116.39476 
L 295.944 116.017467 
L 298.92 116.017467 
L 301.152 114.88559 
L 301.896 114.88559 
L 302.64 114.131004 
L 303.384 114.131004 
L 304.872 113.376419 
L 305.616 113.376419 
L 306.36 112.621834 
L 307.848 112.621834 
L 308.592 111.489956 
L 310.08 111.489956 
L 310.824 111.112664 
L 311.568 111.112664 
L 312.312 110.735371 
L 313.056 109.980786 
L 315.288 109.980786 
L 316.776 109.226201 
L 317.52 109.226201 
L 319.008 108.471616 
L 320.496 108.471616 
L 321.24 108.094323 
L 321.984 108.094323 
L 322.728 107.717031 
L 324.216 107.717031 
L 324.96 107.339738 
L 326.448 107.339738 
L 327.192 106.962445 
L 327.936 106.962445 
L 328.68 105.830568 
L 329.424 105.830568 
L 330.912 105.075983 
L 333.888 105.075983 
L 335.376 104.321397 
L 336.864 104.321397 
L 337.608 103.944105 
L 339.096 103.944105 
L 339.84 103.18952 
L 341.328 103.18952 
L 342.072 102.812227 
L 343.56 102.812227 
L 344.304 101.303057 
L 346.536 101.303057 
L 348.024 100.548472 
L 349.512 100.548472 
L 350.256 100.171179 
L 351 100.171179 
L 351.744 99.793886 
L 353.232 99.793886 
L 353.976 99.416594 
L 356.208 99.416594 
L 357.696 98.662009 
L 359.184 98.662009 
L 360.672 97.907424 
L 361.416 97.907424 
L 363.648 96.775546 
L 365.136 96.775546 
L 365.88 96.398253 
L 366.624 96.398253 
L 367.368 95.266376 
L 368.112 95.266376 
L 369.6 94.51179 
L 370.344 93.757205 
L 371.088 93.757205 
L 371.832 92.625328 
L 372.576 92.248035 
L 373.32 92.248035 
L 374.064 91.870742 
L 375.552 91.870742 
L 376.296 91.49345 
L 377.784 91.49345 
L 378.528 90.738865 
L 383.736 88.097817 
L 385.224 88.097817 
L 386.712 87.343231 
L 387.456 87.343231 
L 388.944 86.588646 
L 389.688 85.834061 
L 390.432 84.702183 
L 391.92 84.702183 
L 392.664 84.324891 
L 393.408 84.324891 
L 394.152 83.947598 
L 394.896 83.947598 
L 395.64 83.570306 
L 396.384 83.570306 
L 397.128 83.193013 
L 397.872 82.061135 
L 400.848 82.061135 
L 402.336 81.30655 
L 404.568 81.30655 
L 405.312 80.929258 
L 406.056 80.929258 
L 406.8 79.420087 
L 407.544 78.665502 
L 408.288 78.665502 
L 409.032 77.910917 
L 409.776 77.910917 
L 410.52 77.533624 
L 411.264 77.533624 
L 412.008 77.156332 
L 412.752 76.024454 
L 413.496 75.647162 
L 414.984 75.647162 
L 415.728 75.269869 
L 417.96 75.269869 
L 418.704 74.892576 
L 419.448 74.892576 
L 420.192 74.515284 
L 420.936 74.515284 
L 421.68 74.137991 
L 423.168 74.137991 
L 424.656 73.383406 
L 425.4 73.383406 
L 426.144 72.628821 
L 427.632 71.874236 
L 429.12 71.874236 
L 429.864 70.365066 
L 431.352 70.365066 
L 432.84 68.855895 
L 434.328 68.855895 
L 435.816 68.10131 
L 436.56 68.10131 
L 438.048 67.346725 
L 438.792 67.346725 
L 439.536 66.969432 
L 440.28 66.969432 
L 441.768 64.705677 
L 442.512 63.951092 
L 443.256 63.573799 
L 444 63.573799 
L 444.744 63.196507 
L 446.232 63.196507 
L 446.976 62.819214 
L 448.464 62.819214 
L 449.208 62.441921 
L 451.44 62.441921 
L 452.184 62.064629 
L 452.928 62.064629 
L 453.672 59.423581 
L 454.416 59.046288 
L 455.16 58.291703 
L 455.904 57.91441 
L 456.648 57.91441 
L 457.392 57.159825 
L 458.136 56.782533 
L 458.88 56.782533 
L 459.624 56.40524 
L 460.368 56.40524 
L 461.112 56.027948 
L 461.856 56.027948 
L 462.6 55.650655 
L 484.92 55.650655 
L 485.664 55.273362 
L 485.664 55.273362 
" style="fill:none;stroke:#ff0000;stroke-linecap:square;"/>
   </g>
   <g id="line2d_3">
    <path clip-path="url(#pd91d97ed6a)" d="M 72 388.8 
L 134.496 388.8 
L 135.24 388.422707 
L 139.704 388.422707 
L 140.448 387.29083 
L 141.192 385.781659 
L 141.936 385.027074 
L 142.68 327.678603 
L 143.424 317.868996 
L 144.168 255.615721 
L 144.912 254.483843 
L 145.656 236.751092 
L 146.4 226.941485 
L 147.144 212.604367 
L 147.888 212.227074 
L 148.632 205.435808 
L 149.376 204.681223 
L 150.12 204.30393 
L 150.864 202.79476 
L 151.608 202.79476 
L 152.352 197.889956 
L 153.096 192.230568 
L 153.84 190.344105 
L 154.584 189.58952 
L 155.328 180.534498 
L 156.072 179.40262 
L 156.816 171.856769 
L 157.56 170.724891 
L 158.304 166.19738 
L 159.048 165.820087 
L 159.792 165.065502 
L 160.536 162.047162 
L 161.28 162.047162 
L 162.024 160.537991 
L 162.768 159.783406 
L 163.512 159.406114 
L 164.256 159.406114 
L 165 158.274236 
L 165.744 155.255895 
L 166.488 152.99214 
L 167.232 152.99214 
L 168.72 150.728384 
L 170.208 150.728384 
L 170.952 150.351092 
L 171.696 149.596507 
L 173.928 148.464629 
L 174.672 147.332751 
L 176.16 146.578166 
L 176.904 145.823581 
L 177.648 144.691703 
L 178.392 143.937118 
L 179.136 143.937118 
L 179.88 143.182533 
L 180.624 142.80524 
L 181.368 142.80524 
L 182.112 142.427948 
L 182.856 141.673362 
L 183.6 140.541485 
L 185.088 140.541485 
L 185.832 140.164192 
L 187.32 138.655022 
L 188.064 138.655022 
L 188.808 138.277729 
L 190.296 138.277729 
L 191.784 137.523144 
L 193.272 136.013974 
L 194.016 136.013974 
L 194.76 134.882096 
L 195.504 134.127511 
L 196.248 133.750218 
L 196.992 133.750218 
L 198.48 132.241048 
L 199.224 131.863755 
L 200.712 131.863755 
L 202.2 131.10917 
L 202.944 131.10917 
L 203.688 129.6 
L 204.432 129.6 
L 205.176 129.222707 
L 205.92 129.222707 
L 206.664 128.468122 
L 208.896 128.468122 
L 209.64 128.09083 
L 211.128 128.09083 
L 211.872 127.336245 
L 212.616 127.336245 
L 213.36 126.958952 
L 214.104 126.958952 
L 217.08 125.449782 
L 217.824 125.449782 
L 218.568 125.072489 
L 219.312 125.072489 
L 220.056 124.695197 
L 220.8 123.940611 
L 222.288 123.186026 
L 223.032 123.186026 
L 223.776 122.808734 
L 224.52 122.808734 
L 225.264 122.054148 
L 226.008 121.676856 
L 226.752 121.676856 
L 227.496 121.299563 
L 230.472 121.299563 
L 231.216 120.922271 
L 232.704 120.922271 
L 233.448 120.544978 
L 234.192 120.544978 
L 234.936 120.167686 
L 237.912 120.167686 
L 238.656 119.4131 
L 239.4 119.4131 
L 240.144 119.035808 
L 241.632 119.035808 
L 243.12 118.281223 
L 245.352 118.281223 
L 246.096 117.90393 
L 247.584 117.90393 
L 248.328 117.526638 
L 249.816 117.526638 
L 250.56 116.772052 
L 252.792 116.772052 
L 253.536 116.39476 
L 255.024 116.39476 
L 255.768 116.017467 
L 257.256 116.017467 
L 258 115.640175 
L 258.744 115.640175 
L 260.976 114.508297 
L 262.464 114.508297 
L 263.208 114.131004 
L 264.696 114.131004 
L 265.44 113.753712 
L 266.928 113.753712 
L 267.672 113.376419 
L 269.904 113.376419 
L 270.648 112.621834 
L 271.392 112.621834 
L 272.136 112.244541 
L 272.88 112.244541 
L 273.624 111.867249 
L 275.112 111.867249 
L 275.856 111.489956 
L 276.6 111.489956 
L 278.832 110.358079 
L 280.32 110.358079 
L 281.064 109.980786 
L 281.808 109.980786 
L 282.552 109.603493 
L 284.04 109.603493 
L 284.784 109.226201 
L 286.272 109.226201 
L 287.76 108.471616 
L 289.248 108.471616 
L 289.992 107.717031 
L 292.968 106.20786 
L 297.432 106.20786 
L 298.176 105.453275 
L 298.92 105.075983 
L 299.664 104.321397 
L 301.896 104.321397 
L 302.64 103.944105 
L 303.384 103.944105 
L 304.872 103.18952 
L 305.616 103.18952 
L 307.104 102.434934 
L 308.592 102.434934 
L 309.336 102.057642 
L 310.824 102.057642 
L 312.312 101.303057 
L 315.288 101.303057 
L 316.032 100.925764 
L 317.52 100.925764 
L 319.008 100.171179 
L 321.24 100.171179 
L 321.984 99.416594 
L 323.472 99.416594 
L 324.216 99.039301 
L 324.96 99.039301 
L 325.704 98.662009 
L 327.936 98.662009 
L 329.424 97.907424 
L 332.4 97.907424 
L 333.144 97.530131 
L 333.888 97.530131 
L 334.632 97.152838 
L 335.376 97.152838 
L 336.864 96.398253 
L 337.608 96.398253 
L 339.096 95.643668 
L 341.328 95.643668 
L 342.072 94.889083 
L 343.56 94.889083 
L 344.304 94.134498 
L 346.536 94.134498 
L 348.024 93.379913 
L 348.768 93.379913 
L 349.512 93.00262 
L 350.256 93.00262 
L 351.744 92.248035 
L 353.976 92.248035 
L 354.72 91.116157 
L 355.464 90.738865 
L 356.952 90.738865 
L 358.44 89.984279 
L 359.184 89.984279 
L 359.928 89.606987 
L 360.672 89.606987 
L 361.416 89.229694 
L 363.648 89.229694 
L 365.88 88.097817 
L 366.624 87.343231 
L 367.368 87.343231 
L 368.856 86.588646 
L 369.6 86.588646 
L 371.832 85.456769 
L 372.576 85.456769 
L 373.32 83.947598 
L 374.064 83.570306 
L 374.808 82.815721 
L 377.04 82.815721 
L 378.528 82.061135 
L 380.016 82.061135 
L 380.76 81.30655 
L 381.504 81.30655 
L 382.992 80.551965 
L 384.48 80.551965 
L 385.224 80.174672 
L 386.712 80.174672 
L 387.456 79.042795 
L 388.2 78.665502 
L 391.176 78.665502 
L 392.664 77.910917 
L 394.152 77.910917 
L 394.896 77.156332 
L 395.64 77.156332 
L 396.384 76.779039 
L 397.128 76.779039 
L 397.872 76.401747 
L 398.616 76.401747 
L 399.36 75.647162 
L 400.104 75.269869 
L 400.848 75.269869 
L 401.592 74.892576 
L 402.336 74.892576 
L 403.08 74.515284 
L 404.568 74.515284 
L 405.312 74.137991 
L 407.544 74.137991 
L 409.032 73.383406 
L 409.776 73.383406 
L 412.008 72.251528 
L 412.752 72.251528 
L 413.496 71.496943 
L 414.984 71.496943 
L 415.728 70.742358 
L 417.216 70.742358 
L 417.96 69.987773 
L 418.704 69.61048 
L 419.448 69.61048 
L 420.192 69.233188 
L 420.936 69.233188 
L 421.68 68.855895 
L 423.168 68.855895 
L 424.656 68.10131 
L 425.4 68.10131 
L 426.144 67.724017 
L 426.888 66.214847 
L 427.632 66.214847 
L 428.376 64.705677 
L 429.864 63.951092 
L 431.352 63.951092 
L 432.096 63.196507 
L 432.84 63.196507 
L 433.584 62.819214 
L 434.328 62.819214 
L 435.072 62.441921 
L 436.56 62.441921 
L 437.304 62.064629 
L 438.048 60.932751 
L 438.792 60.932751 
L 441.024 59.800873 
L 442.512 59.800873 
L 443.256 59.423581 
L 444.744 59.423581 
L 445.488 59.046288 
L 446.976 59.046288 
L 448.464 58.291703 
L 449.208 58.291703 
L 449.952 57.91441 
L 451.44 57.91441 
L 452.184 57.537118 
L 453.672 57.537118 
L 454.416 57.159825 
L 455.904 57.159825 
L 456.648 56.782533 
L 457.392 56.782533 
L 458.136 56.40524 
L 459.624 56.40524 
L 460.368 56.027948 
L 461.856 56.027948 
L 462.6 55.650655 
L 484.92 55.650655 
L 485.664 55.273362 
L 485.664 55.273362 
" style="fill:none;stroke:#008000;stroke-linecap:square;"/>
   </g>
   <g id="patch_3">
    <path d="M 72 43.2 
L 518.4 43.2 
" style="fill:none;stroke:#000000;stroke-linecap:square;stroke-linejoin:miter;"/>
   </g>
   <g id="patch_4">
    <path d="M 518.4 388.8 
L 518.4 43.2 
" style="fill:none;stroke:#000000;stroke-linecap:square;stroke-linejoin:miter;"/>
   </g>
   <g id="patch_5">
    <path d="M 72 388.8 
L 518.4 388.8 
" style="fill:none;stroke:#000000;stroke-linecap:square;stroke-linejoin:miter;"/>
   </g>
   <g id="patch_6">
    <path d="M 72 388.8 
L 72 43.2 
" style="fill:none;stroke:#000000;stroke-linecap:square;stroke-linejoin:miter;"/>
   </g>
   <g id="matplotlib.axis_1">
    <g id="xtick_1">
     <g id="line2d_4">
      <defs>
       <path d="M 0 0 
L 0 -4 
" id="m49e93c543f" style="stroke:#000000;stroke-width:0.5;"/>
      </defs>
      <g>
       <use style="stroke:#000000;stroke-width:0.5;" x="72.0" xlink:href="#m49e93c543f" y="388.8"/>
      </g>
     </g>
     <g id="line2d_5">
      <defs>
       <path d="M 0 0 
L 0 4 
" id="mf4f88aac83" style="stroke:#000000;stroke-width:0.5;"/>
      </defs>
      <g>
       <use style="stroke:#000000;stroke-width:0.5;" x="72.0" xlink:href="#mf4f88aac83" y="43.2"/>
      </g>
     </g>
     <g id="text_1">
      <!-- 0 -->
      <defs>
       <path d="M 31.78125 66.40625 
Q 24.171875 66.40625 20.328125 58.90625 
Q 16.5 51.421875 16.5 36.375 
Q 16.5 21.390625 20.328125 13.890625 
Q 24.171875 6.390625 31.78125 6.390625 
Q 39.453125 6.390625 43.28125 13.890625 
Q 47.125 21.390625 47.125 36.375 
Q 47.125 51.421875 43.28125 58.90625 
Q 39.453125 66.40625 31.78125 66.40625 
M 31.78125 74.21875 
Q 44.046875 74.21875 50.515625 64.515625 
Q 56.984375 54.828125 56.984375 36.375 
Q 56.984375 17.96875 50.515625 8.265625 
Q 44.046875 -1.421875 31.78125 -1.421875 
Q 19.53125 -1.421875 13.0625 8.265625 
Q 6.59375 17.96875 6.59375 36.375 
Q 6.59375 54.828125 13.0625 64.515625 
Q 19.53125 74.21875 31.78125 74.21875 
" id="BitstreamVeraSans-Roman-30"/>
      </defs>
      <g transform="translate(68.1825 401.918125)scale(0.12 -0.12)">
       <use xlink:href="#BitstreamVeraSans-Roman-30"/>
      </g>
     </g>
    </g>
    <g id="xtick_2">
     <g id="line2d_6">
      <g>
       <use style="stroke:#000000;stroke-width:0.5;" x="146.4" xlink:href="#m49e93c543f" y="388.8"/>
      </g>
     </g>
     <g id="line2d_7">
      <g>
       <use style="stroke:#000000;stroke-width:0.5;" x="146.4" xlink:href="#mf4f88aac83" y="43.2"/>
      </g>
     </g>
     <g id="text_2">
      <!-- 100 -->
      <defs>
       <path d="M 12.40625 8.296875 
L 28.515625 8.296875 
L 28.515625 63.921875 
L 10.984375 60.40625 
L 10.984375 69.390625 
L 28.421875 72.90625 
L 38.28125 72.90625 
L 38.28125 8.296875 
L 54.390625 8.296875 
L 54.390625 0 
L 12.40625 0 
z
" id="BitstreamVeraSans-Roman-31"/>
      </defs>
      <g transform="translate(134.9475 401.918125)scale(0.12 -0.12)">
       <use xlink:href="#BitstreamVeraSans-Roman-31"/>
       <use x="63.623046875" xlink:href="#BitstreamVeraSans-Roman-30"/>
       <use x="127.24609375" xlink:href="#BitstreamVeraSans-Roman-30"/>
      </g>
     </g>
    </g>
    <g id="xtick_3">
     <g id="line2d_8">
      <g>
       <use style="stroke:#000000;stroke-width:0.5;" x="220.8" xlink:href="#m49e93c543f" y="388.8"/>
      </g>
     </g>
     <g id="line2d_9">
      <g>
       <use style="stroke:#000000;stroke-width:0.5;" x="220.8" xlink:href="#mf4f88aac83" y="43.2"/>
      </g>
     </g>
     <g id="text_3">
      <!-- 200 -->
      <defs>
       <path d="M 19.1875 8.296875 
L 53.609375 8.296875 
L 53.609375 0 
L 7.328125 0 
L 7.328125 8.296875 
Q 12.9375 14.109375 22.625 23.890625 
Q 32.328125 33.6875 34.8125 36.53125 
Q 39.546875 41.84375 41.421875 45.53125 
Q 43.3125 49.21875 43.3125 52.78125 
Q 43.3125 58.59375 39.234375 62.25 
Q 35.15625 65.921875 28.609375 65.921875 
Q 23.96875 65.921875 18.8125 64.3125 
Q 13.671875 62.703125 7.8125 59.421875 
L 7.8125 69.390625 
Q 13.765625 71.78125 18.9375 73 
Q 24.125 74.21875 28.421875 74.21875 
Q 39.75 74.21875 46.484375 68.546875 
Q 53.21875 62.890625 53.21875 53.421875 
Q 53.21875 48.921875 51.53125 44.890625 
Q 49.859375 40.875 45.40625 35.40625 
Q 44.1875 33.984375 37.640625 27.21875 
Q 31.109375 20.453125 19.1875 8.296875 
" id="BitstreamVeraSans-Roman-32"/>
      </defs>
      <g transform="translate(209.3475 401.918125)scale(0.12 -0.12)">
       <use xlink:href="#BitstreamVeraSans-Roman-32"/>
       <use x="63.623046875" xlink:href="#BitstreamVeraSans-Roman-30"/>
       <use x="127.24609375" xlink:href="#BitstreamVeraSans-Roman-30"/>
      </g>
     </g>
    </g>
    <g id="xtick_4">
     <g id="line2d_10">
      <g>
       <use style="stroke:#000000;stroke-width:0.5;" x="295.2" xlink:href="#m49e93c543f" y="388.8"/>
      </g>
     </g>
     <g id="line2d_11">
      <g>
       <use style="stroke:#000000;stroke-width:0.5;" x="295.2" xlink:href="#mf4f88aac83" y="43.2"/>
      </g>
     </g>
     <g id="text_4">
      <!-- 300 -->
      <defs>
       <path d="M 40.578125 39.3125 
Q 47.65625 37.796875 51.625 33 
Q 55.609375 28.21875 55.609375 21.1875 
Q 55.609375 10.40625 48.1875 4.484375 
Q 40.765625 -1.421875 27.09375 -1.421875 
Q 22.515625 -1.421875 17.65625 -0.515625 
Q 12.796875 0.390625 7.625 2.203125 
L 7.625 11.71875 
Q 11.71875 9.328125 16.59375 8.109375 
Q 21.484375 6.890625 26.8125 6.890625 
Q 36.078125 6.890625 40.9375 10.546875 
Q 45.796875 14.203125 45.796875 21.1875 
Q 45.796875 27.640625 41.28125 31.265625 
Q 36.765625 34.90625 28.71875 34.90625 
L 20.21875 34.90625 
L 20.21875 43.015625 
L 29.109375 43.015625 
Q 36.375 43.015625 40.234375 45.921875 
Q 44.09375 48.828125 44.09375 54.296875 
Q 44.09375 59.90625 40.109375 62.90625 
Q 36.140625 65.921875 28.71875 65.921875 
Q 24.65625 65.921875 20.015625 65.03125 
Q 15.375 64.15625 9.8125 62.3125 
L 9.8125 71.09375 
Q 15.4375 72.65625 20.34375 73.4375 
Q 25.25 74.21875 29.59375 74.21875 
Q 40.828125 74.21875 47.359375 69.109375 
Q 53.90625 64.015625 53.90625 55.328125 
Q 53.90625 49.265625 50.4375 45.09375 
Q 46.96875 40.921875 40.578125 39.3125 
" id="BitstreamVeraSans-Roman-33"/>
      </defs>
      <g transform="translate(283.7475 401.918125)scale(0.12 -0.12)">
       <use xlink:href="#BitstreamVeraSans-Roman-33"/>
       <use x="63.623046875" xlink:href="#BitstreamVeraSans-Roman-30"/>
       <use x="127.24609375" xlink:href="#BitstreamVeraSans-Roman-30"/>
      </g>
     </g>
    </g>
    <g id="xtick_5">
     <g id="line2d_12">
      <g>
       <use style="stroke:#000000;stroke-width:0.5;" x="369.6" xlink:href="#m49e93c543f" y="388.8"/>
      </g>
     </g>
     <g id="line2d_13">
      <g>
       <use style="stroke:#000000;stroke-width:0.5;" x="369.6" xlink:href="#mf4f88aac83" y="43.2"/>
      </g>
     </g>
     <g id="text_5">
      <!-- 400 -->
      <defs>
       <path d="M 37.796875 64.3125 
L 12.890625 25.390625 
L 37.796875 25.390625 
z
M 35.203125 72.90625 
L 47.609375 72.90625 
L 47.609375 25.390625 
L 58.015625 25.390625 
L 58.015625 17.1875 
L 47.609375 17.1875 
L 47.609375 0 
L 37.796875 0 
L 37.796875 17.1875 
L 4.890625 17.1875 
L 4.890625 26.703125 
z
" id="BitstreamVeraSans-Roman-34"/>
      </defs>
      <g transform="translate(358.1475 401.918125)scale(0.12 -0.12)">
       <use xlink:href="#BitstreamVeraSans-Roman-34"/>
       <use x="63.623046875" xlink:href="#BitstreamVeraSans-Roman-30"/>
       <use x="127.24609375" xlink:href="#BitstreamVeraSans-Roman-30"/>
      </g>
     </g>
    </g>
    <g id="xtick_6">
     <g id="line2d_14">
      <g>
       <use style="stroke:#000000;stroke-width:0.5;" x="444.0" xlink:href="#m49e93c543f" y="388.8"/>
      </g>
     </g>
     <g id="line2d_15">
      <g>
       <use style="stroke:#000000;stroke-width:0.5;" x="444.0" xlink:href="#mf4f88aac83" y="43.2"/>
      </g>
     </g>
     <g id="text_6">
      <!-- 500 -->
      <defs>
       <path d="M 10.796875 72.90625 
L 49.515625 72.90625 
L 49.515625 64.59375 
L 19.828125 64.59375 
L 19.828125 46.734375 
Q 21.96875 47.46875 24.109375 47.828125 
Q 26.265625 48.1875 28.421875 48.1875 
Q 40.625 48.1875 47.75 41.5 
Q 54.890625 34.8125 54.890625 23.390625 
Q 54.890625 11.625 47.5625 5.09375 
Q 40.234375 -1.421875 26.90625 -1.421875 
Q 22.3125 -1.421875 17.546875 -0.640625 
Q 12.796875 0.140625 7.71875 1.703125 
L 7.71875 11.625 
Q 12.109375 9.234375 16.796875 8.0625 
Q 21.484375 6.890625 26.703125 6.890625 
Q 35.15625 6.890625 40.078125 11.328125 
Q 45.015625 15.765625 45.015625 23.390625 
Q 45.015625 31 40.078125 35.4375 
Q 35.15625 39.890625 26.703125 39.890625 
Q 22.75 39.890625 18.8125 39.015625 
Q 14.890625 38.140625 10.796875 36.28125 
z
" id="BitstreamVeraSans-Roman-35"/>
      </defs>
      <g transform="translate(432.5475 401.918125)scale(0.12 -0.12)">
       <use xlink:href="#BitstreamVeraSans-Roman-35"/>
       <use x="63.623046875" xlink:href="#BitstreamVeraSans-Roman-30"/>
       <use x="127.24609375" xlink:href="#BitstreamVeraSans-Roman-30"/>
      </g>
     </g>
    </g>
    <g id="xtick_7">
     <g id="line2d_16">
      <g>
       <use style="stroke:#000000;stroke-width:0.5;" x="518.4" xlink:href="#m49e93c543f" y="388.8"/>
      </g>
     </g>
     <g id="line2d_17">
      <g>
       <use style="stroke:#000000;stroke-width:0.5;" x="518.4" xlink:href="#mf4f88aac83" y="43.2"/>
      </g>
     </g>
     <g id="text_7">
      <!-- 600 -->
      <defs>
       <path d="M 33.015625 40.375 
Q 26.375 40.375 22.484375 35.828125 
Q 18.609375 31.296875 18.609375 23.390625 
Q 18.609375 15.53125 22.484375 10.953125 
Q 26.375 6.390625 33.015625 6.390625 
Q 39.65625 6.390625 43.53125 10.953125 
Q 47.40625 15.53125 47.40625 23.390625 
Q 47.40625 31.296875 43.53125 35.828125 
Q 39.65625 40.375 33.015625 40.375 
M 52.59375 71.296875 
L 52.59375 62.3125 
Q 48.875 64.0625 45.09375 64.984375 
Q 41.3125 65.921875 37.59375 65.921875 
Q 27.828125 65.921875 22.671875 59.328125 
Q 17.53125 52.734375 16.796875 39.40625 
Q 19.671875 43.65625 24.015625 45.921875 
Q 28.375 48.1875 33.59375 48.1875 
Q 44.578125 48.1875 50.953125 41.515625 
Q 57.328125 34.859375 57.328125 23.390625 
Q 57.328125 12.15625 50.6875 5.359375 
Q 44.046875 -1.421875 33.015625 -1.421875 
Q 20.359375 -1.421875 13.671875 8.265625 
Q 6.984375 17.96875 6.984375 36.375 
Q 6.984375 53.65625 15.1875 63.9375 
Q 23.390625 74.21875 37.203125 74.21875 
Q 40.921875 74.21875 44.703125 73.484375 
Q 48.484375 72.75 52.59375 71.296875 
" id="BitstreamVeraSans-Roman-36"/>
      </defs>
      <g transform="translate(506.9475 401.918125)scale(0.12 -0.12)">
       <use xlink:href="#BitstreamVeraSans-Roman-36"/>
       <use x="63.623046875" xlink:href="#BitstreamVeraSans-Roman-30"/>
       <use x="127.24609375" xlink:href="#BitstreamVeraSans-Roman-30"/>
      </g>
     </g>
    </g>
    <g id="text_8">
     <!-- Identities -->
     <defs>
      <path d="M 54.890625 33.015625 
L 54.890625 0 
L 45.90625 0 
L 45.90625 32.71875 
Q 45.90625 40.484375 42.875 44.328125 
Q 39.84375 48.1875 33.796875 48.1875 
Q 26.515625 48.1875 22.3125 43.546875 
Q 18.109375 38.921875 18.109375 30.90625 
L 18.109375 0 
L 9.078125 0 
L 9.078125 54.6875 
L 18.109375 54.6875 
L 18.109375 46.1875 
Q 21.34375 51.125 25.703125 53.5625 
Q 30.078125 56 35.796875 56 
Q 45.21875 56 50.046875 50.171875 
Q 54.890625 44.34375 54.890625 33.015625 
" id="BitstreamVeraSans-Roman-6e"/>
      <path d="M 9.421875 54.6875 
L 18.40625 54.6875 
L 18.40625 0 
L 9.421875 0 
z
M 9.421875 75.984375 
L 18.40625 75.984375 
L 18.40625 64.59375 
L 9.421875 64.59375 
z
" id="BitstreamVeraSans-Roman-69"/>
      <path d="M 56.203125 29.59375 
L 56.203125 25.203125 
L 14.890625 25.203125 
Q 15.484375 15.921875 20.484375 11.0625 
Q 25.484375 6.203125 34.421875 6.203125 
Q 39.59375 6.203125 44.453125 7.46875 
Q 49.3125 8.734375 54.109375 11.28125 
L 54.109375 2.78125 
Q 49.265625 0.734375 44.1875 -0.34375 
Q 39.109375 -1.421875 33.890625 -1.421875 
Q 20.796875 -1.421875 13.15625 6.1875 
Q 5.515625 13.8125 5.515625 26.8125 
Q 5.515625 40.234375 12.765625 48.109375 
Q 20.015625 56 32.328125 56 
Q 43.359375 56 49.78125 48.890625 
Q 56.203125 41.796875 56.203125 29.59375 
M 47.21875 32.234375 
Q 47.125 39.59375 43.09375 43.984375 
Q 39.0625 48.390625 32.421875 48.390625 
Q 24.90625 48.390625 20.390625 44.140625 
Q 15.875 39.890625 15.1875 32.171875 
z
" id="BitstreamVeraSans-Roman-65"/>
      <path d="M 45.40625 46.390625 
L 45.40625 75.984375 
L 54.390625 75.984375 
L 54.390625 0 
L 45.40625 0 
L 45.40625 8.203125 
Q 42.578125 3.328125 38.25 0.953125 
Q 33.9375 -1.421875 27.875 -1.421875 
Q 17.96875 -1.421875 11.734375 6.484375 
Q 5.515625 14.40625 5.515625 27.296875 
Q 5.515625 40.1875 11.734375 48.09375 
Q 17.96875 56 27.875 56 
Q 33.9375 56 38.25 53.625 
Q 42.578125 51.265625 45.40625 46.390625 
M 14.796875 27.296875 
Q 14.796875 17.390625 18.875 11.75 
Q 22.953125 6.109375 30.078125 6.109375 
Q 37.203125 6.109375 41.296875 11.75 
Q 45.40625 17.390625 45.40625 27.296875 
Q 45.40625 37.203125 41.296875 42.84375 
Q 37.203125 48.484375 30.078125 48.484375 
Q 22.953125 48.484375 18.875 42.84375 
Q 14.796875 37.203125 14.796875 27.296875 
" id="BitstreamVeraSans-Roman-64"/>
      <path d="M 18.3125 70.21875 
L 18.3125 54.6875 
L 36.8125 54.6875 
L 36.8125 47.703125 
L 18.3125 47.703125 
L 18.3125 18.015625 
Q 18.3125 11.328125 20.140625 9.421875 
Q 21.96875 7.515625 27.59375 7.515625 
L 36.8125 7.515625 
L 36.8125 0 
L 27.59375 0 
Q 17.1875 0 13.234375 3.875 
Q 9.28125 7.765625 9.28125 18.015625 
L 9.28125 47.703125 
L 2.6875 47.703125 
L 2.6875 54.6875 
L 9.28125 54.6875 
L 9.28125 70.21875 
z
" id="BitstreamVeraSans-Roman-74"/>
      <path d="M 44.28125 53.078125 
L 44.28125 44.578125 
Q 40.484375 46.53125 36.375 47.5 
Q 32.28125 48.484375 27.875 48.484375 
Q 21.1875 48.484375 17.84375 46.4375 
Q 14.5 44.390625 14.5 40.28125 
Q 14.5 37.15625 16.890625 35.375 
Q 19.28125 33.59375 26.515625 31.984375 
L 29.59375 31.296875 
Q 39.15625 29.25 43.1875 25.515625 
Q 47.21875 21.78125 47.21875 15.09375 
Q 47.21875 7.46875 41.1875 3.015625 
Q 35.15625 -1.421875 24.609375 -1.421875 
Q 20.21875 -1.421875 15.453125 -0.5625 
Q 10.6875 0.296875 5.421875 2 
L 5.421875 11.28125 
Q 10.40625 8.6875 15.234375 7.390625 
Q 20.0625 6.109375 24.8125 6.109375 
Q 31.15625 6.109375 34.5625 8.28125 
Q 37.984375 10.453125 37.984375 14.40625 
Q 37.984375 18.0625 35.515625 20.015625 
Q 33.0625 21.96875 24.703125 23.78125 
L 21.578125 24.515625 
Q 13.234375 26.265625 9.515625 29.90625 
Q 5.8125 33.546875 5.8125 39.890625 
Q 5.8125 47.609375 11.28125 51.796875 
Q 16.75 56 26.8125 56 
Q 31.78125 56 36.171875 55.265625 
Q 40.578125 54.546875 44.28125 53.078125 
" id="BitstreamVeraSans-Roman-73"/>
      <path d="M 9.8125 72.90625 
L 19.671875 72.90625 
L 19.671875 0 
L 9.8125 0 
z
" id="BitstreamVeraSans-Roman-49"/>
     </defs>
     <g transform="translate(267.2709375 418.531875)scale(0.12 -0.12)">
      <use xlink:href="#BitstreamVeraSans-Roman-49"/>
      <use x="29.4921875" xlink:href="#BitstreamVeraSans-Roman-64"/>
      <use x="92.96875" xlink:href="#BitstreamVeraSans-Roman-65"/>
      <use x="154.4921875" xlink:href="#BitstreamVeraSans-Roman-6e"/>
      <use x="217.87109375" xlink:href="#BitstreamVeraSans-Roman-74"/>
      <use x="257.080078125" xlink:href="#BitstreamVeraSans-Roman-69"/>
      <use x="284.86328125" xlink:href="#BitstreamVeraSans-Roman-74"/>
      <use x="324.072265625" xlink:href="#BitstreamVeraSans-Roman-69"/>
      <use x="351.85546875" xlink:href="#BitstreamVeraSans-Roman-65"/>
      <use x="413.37890625" xlink:href="#BitstreamVeraSans-Roman-73"/>
     </g>
    </g>
   </g>
   <g id="matplotlib.axis_2">
    <g id="ytick_1">
     <g id="line2d_18">
      <defs>
       <path d="M 0 0 
L 4 0 
" id="m0ac5c2f90b" style="stroke:#000000;stroke-width:0.5;"/>
      </defs>
      <g>
       <use style="stroke:#000000;stroke-width:0.5;" x="72.0" xlink:href="#m0ac5c2f90b" y="388.8"/>
      </g>
     </g>
     <g id="line2d_19">
      <defs>
       <path d="M 0 0 
L -4 0 
" id="mec61c19296" style="stroke:#000000;stroke-width:0.5;"/>
      </defs>
      <g>
       <use style="stroke:#000000;stroke-width:0.5;" x="518.4" xlink:href="#mec61c19296" y="388.8"/>
      </g>
     </g>
     <g id="text_9">
      <!-- 0.0 -->
      <defs>
       <path d="M 10.6875 12.40625 
L 21 12.40625 
L 21 0 
L 10.6875 0 
z
" id="BitstreamVeraSans-Roman-2e"/>
      </defs>
      <g transform="translate(48.91625 392.11125)scale(0.12 -0.12)">
       <use xlink:href="#BitstreamVeraSans-Roman-30"/>
       <use x="63.623046875" xlink:href="#BitstreamVeraSans-Roman-2e"/>
       <use x="95.41015625" xlink:href="#BitstreamVeraSans-Roman-30"/>
      </g>
     </g>
    </g>
    <g id="ytick_2">
     <g id="line2d_20">
      <g>
       <use style="stroke:#000000;stroke-width:0.5;" x="72.0" xlink:href="#m0ac5c2f90b" y="319.68"/>
      </g>
     </g>
     <g id="line2d_21">
      <g>
       <use style="stroke:#000000;stroke-width:0.5;" x="518.4" xlink:href="#mec61c19296" y="319.68"/>
      </g>
     </g>
     <g id="text_10">
      <!-- 0.2 -->
      <g transform="translate(48.91625 322.99125)scale(0.12 -0.12)">
       <use xlink:href="#BitstreamVeraSans-Roman-30"/>
       <use x="63.623046875" xlink:href="#BitstreamVeraSans-Roman-2e"/>
       <use x="95.41015625" xlink:href="#BitstreamVeraSans-Roman-32"/>
      </g>
     </g>
    </g>
    <g id="ytick_3">
     <g id="line2d_22">
      <g>
       <use style="stroke:#000000;stroke-width:0.5;" x="72.0" xlink:href="#m0ac5c2f90b" y="250.56"/>
      </g>
     </g>
     <g id="line2d_23">
      <g>
       <use style="stroke:#000000;stroke-width:0.5;" x="518.4" xlink:href="#mec61c19296" y="250.56"/>
      </g>
     </g>
     <g id="text_11">
      <!-- 0.4 -->
      <g transform="translate(48.91625 253.87125)scale(0.12 -0.12)">
       <use xlink:href="#BitstreamVeraSans-Roman-30"/>
       <use x="63.623046875" xlink:href="#BitstreamVeraSans-Roman-2e"/>
       <use x="95.41015625" xlink:href="#BitstreamVeraSans-Roman-34"/>
      </g>
     </g>
    </g>
    <g id="ytick_4">
     <g id="line2d_24">
      <g>
       <use style="stroke:#000000;stroke-width:0.5;" x="72.0" xlink:href="#m0ac5c2f90b" y="181.44"/>
      </g>
     </g>
     <g id="line2d_25">
      <g>
       <use style="stroke:#000000;stroke-width:0.5;" x="518.4" xlink:href="#mec61c19296" y="181.44"/>
      </g>
     </g>
     <g id="text_12">
      <!-- 0.6 -->
      <g transform="translate(48.91625 184.75125)scale(0.12 -0.12)">
       <use xlink:href="#BitstreamVeraSans-Roman-30"/>
       <use x="63.623046875" xlink:href="#BitstreamVeraSans-Roman-2e"/>
       <use x="95.41015625" xlink:href="#BitstreamVeraSans-Roman-36"/>
      </g>
     </g>
    </g>
    <g id="ytick_5">
     <g id="line2d_26">
      <g>
       <use style="stroke:#000000;stroke-width:0.5;" x="72.0" xlink:href="#m0ac5c2f90b" y="112.32"/>
      </g>
     </g>
     <g id="line2d_27">
      <g>
       <use style="stroke:#000000;stroke-width:0.5;" x="518.4" xlink:href="#mec61c19296" y="112.32"/>
      </g>
     </g>
     <g id="text_13">
      <!-- 0.8 -->
      <defs>
       <path d="M 31.78125 34.625 
Q 24.75 34.625 20.71875 30.859375 
Q 16.703125 27.09375 16.703125 20.515625 
Q 16.703125 13.921875 20.71875 10.15625 
Q 24.75 6.390625 31.78125 6.390625 
Q 38.8125 6.390625 42.859375 10.171875 
Q 46.921875 13.96875 46.921875 20.515625 
Q 46.921875 27.09375 42.890625 30.859375 
Q 38.875 34.625 31.78125 34.625 
M 21.921875 38.8125 
Q 15.578125 40.375 12.03125 44.71875 
Q 8.5 49.078125 8.5 55.328125 
Q 8.5 64.0625 14.71875 69.140625 
Q 20.953125 74.21875 31.78125 74.21875 
Q 42.671875 74.21875 48.875 69.140625 
Q 55.078125 64.0625 55.078125 55.328125 
Q 55.078125 49.078125 51.53125 44.71875 
Q 48 40.375 41.703125 38.8125 
Q 48.828125 37.15625 52.796875 32.3125 
Q 56.78125 27.484375 56.78125 20.515625 
Q 56.78125 9.90625 50.3125 4.234375 
Q 43.84375 -1.421875 31.78125 -1.421875 
Q 19.734375 -1.421875 13.25 4.234375 
Q 6.78125 9.90625 6.78125 20.515625 
Q 6.78125 27.484375 10.78125 32.3125 
Q 14.796875 37.15625 21.921875 38.8125 
M 18.3125 54.390625 
Q 18.3125 48.734375 21.84375 45.5625 
Q 25.390625 42.390625 31.78125 42.390625 
Q 38.140625 42.390625 41.71875 45.5625 
Q 45.3125 48.734375 45.3125 54.390625 
Q 45.3125 60.0625 41.71875 63.234375 
Q 38.140625 66.40625 31.78125 66.40625 
Q 25.390625 66.40625 21.84375 63.234375 
Q 18.3125 60.0625 18.3125 54.390625 
" id="BitstreamVeraSans-Roman-38"/>
      </defs>
      <g transform="translate(48.91625 115.63125)scale(0.12 -0.12)">
       <use xlink:href="#BitstreamVeraSans-Roman-30"/>
       <use x="63.623046875" xlink:href="#BitstreamVeraSans-Roman-2e"/>
       <use x="95.41015625" xlink:href="#BitstreamVeraSans-Roman-38"/>
      </g>
     </g>
    </g>
    <g id="ytick_6">
     <g id="line2d_28">
      <g>
       <use style="stroke:#000000;stroke-width:0.5;" x="72.0" xlink:href="#m0ac5c2f90b" y="43.2"/>
      </g>
     </g>
     <g id="line2d_29">
      <g>
       <use style="stroke:#000000;stroke-width:0.5;" x="518.4" xlink:href="#mec61c19296" y="43.2"/>
      </g>
     </g>
     <g id="text_14">
      <!-- 1.0 -->
      <g transform="translate(48.91625 46.51125)scale(0.12 -0.12)">
       <use xlink:href="#BitstreamVeraSans-Roman-31"/>
       <use x="63.623046875" xlink:href="#BitstreamVeraSans-Roman-2e"/>
       <use x="95.41015625" xlink:href="#BitstreamVeraSans-Roman-30"/>
      </g>
     </g>
    </g>
    <g id="text_15">
     <!-- Informativeness (fraction) -->
     <defs>
      <path id="BitstreamVeraSans-Roman-20"/>
      <path d="M 41.109375 46.296875 
Q 39.59375 47.171875 37.8125 47.578125 
Q 36.03125 48 33.890625 48 
Q 26.265625 48 22.1875 43.046875 
Q 18.109375 38.09375 18.109375 28.8125 
L 18.109375 0 
L 9.078125 0 
L 9.078125 54.6875 
L 18.109375 54.6875 
L 18.109375 46.1875 
Q 20.953125 51.171875 25.484375 53.578125 
Q 30.03125 56 36.53125 56 
Q 37.453125 56 38.578125 55.875 
Q 39.703125 55.765625 41.0625 55.515625 
z
" id="BitstreamVeraSans-Roman-72"/>
      <path d="M 52 44.1875 
Q 55.375 50.25 60.0625 53.125 
Q 64.75 56 71.09375 56 
Q 79.640625 56 84.28125 50.015625 
Q 88.921875 44.046875 88.921875 33.015625 
L 88.921875 0 
L 79.890625 0 
L 79.890625 32.71875 
Q 79.890625 40.578125 77.09375 44.375 
Q 74.3125 48.1875 68.609375 48.1875 
Q 61.625 48.1875 57.5625 43.546875 
Q 53.515625 38.921875 53.515625 30.90625 
L 53.515625 0 
L 44.484375 0 
L 44.484375 32.71875 
Q 44.484375 40.625 41.703125 44.40625 
Q 38.921875 48.1875 33.109375 48.1875 
Q 26.21875 48.1875 22.15625 43.53125 
Q 18.109375 38.875 18.109375 30.90625 
L 18.109375 0 
L 9.078125 0 
L 9.078125 54.6875 
L 18.109375 54.6875 
L 18.109375 46.1875 
Q 21.1875 51.21875 25.484375 53.609375 
Q 29.78125 56 35.6875 56 
Q 41.65625 56 45.828125 52.96875 
Q 50 49.953125 52 44.1875 
" id="BitstreamVeraSans-Roman-6d"/>
      <path d="M 30.609375 48.390625 
Q 23.390625 48.390625 19.1875 42.75 
Q 14.984375 37.109375 14.984375 27.296875 
Q 14.984375 17.484375 19.15625 11.84375 
Q 23.34375 6.203125 30.609375 6.203125 
Q 37.796875 6.203125 41.984375 11.859375 
Q 46.1875 17.53125 46.1875 27.296875 
Q 46.1875 37.015625 41.984375 42.703125 
Q 37.796875 48.390625 30.609375 48.390625 
M 30.609375 56 
Q 42.328125 56 49.015625 48.375 
Q 55.71875 40.765625 55.71875 27.296875 
Q 55.71875 13.875 49.015625 6.21875 
Q 42.328125 -1.421875 30.609375 -1.421875 
Q 18.84375 -1.421875 12.171875 6.21875 
Q 5.515625 13.875 5.515625 27.296875 
Q 5.515625 40.765625 12.171875 48.375 
Q 18.84375 56 30.609375 56 
" id="BitstreamVeraSans-Roman-6f"/>
      <path d="M 8.015625 75.875 
L 15.828125 75.875 
Q 23.140625 64.359375 26.78125 53.3125 
Q 30.421875 42.28125 30.421875 31.390625 
Q 30.421875 20.453125 26.78125 9.375 
Q 23.140625 -1.703125 15.828125 -13.1875 
L 8.015625 -13.1875 
Q 14.5 -2 17.703125 9.0625 
Q 20.90625 20.125 20.90625 31.390625 
Q 20.90625 42.671875 17.703125 53.65625 
Q 14.5 64.65625 8.015625 75.875 
" id="BitstreamVeraSans-Roman-29"/>
      <path d="M 31 75.875 
Q 24.46875 64.65625 21.28125 53.65625 
Q 18.109375 42.671875 18.109375 31.390625 
Q 18.109375 20.125 21.3125 9.0625 
Q 24.515625 -2 31 -13.1875 
L 23.1875 -13.1875 
Q 15.875 -1.703125 12.234375 9.375 
Q 8.59375 20.453125 8.59375 31.390625 
Q 8.59375 42.28125 12.203125 53.3125 
Q 15.828125 64.359375 23.1875 75.875 
z
" id="BitstreamVeraSans-Roman-28"/>
      <path d="M 2.984375 54.6875 
L 12.5 54.6875 
L 29.59375 8.796875 
L 46.6875 54.6875 
L 56.203125 54.6875 
L 35.6875 0 
L 23.484375 0 
z
" id="BitstreamVeraSans-Roman-76"/>
      <path d="M 37.109375 75.984375 
L 37.109375 68.5 
L 28.515625 68.5 
Q 23.6875 68.5 21.796875 66.546875 
Q 19.921875 64.59375 19.921875 59.515625 
L 19.921875 54.6875 
L 34.71875 54.6875 
L 34.71875 47.703125 
L 19.921875 47.703125 
L 19.921875 0 
L 10.890625 0 
L 10.890625 47.703125 
L 2.296875 47.703125 
L 2.296875 54.6875 
L 10.890625 54.6875 
L 10.890625 58.5 
Q 10.890625 67.625 15.140625 71.796875 
Q 19.390625 75.984375 28.609375 75.984375 
z
" id="BitstreamVeraSans-Roman-66"/>
      <path d="M 34.28125 27.484375 
Q 23.390625 27.484375 19.1875 25 
Q 14.984375 22.515625 14.984375 16.5 
Q 14.984375 11.71875 18.140625 8.90625 
Q 21.296875 6.109375 26.703125 6.109375 
Q 34.1875 6.109375 38.703125 11.40625 
Q 43.21875 16.703125 43.21875 25.484375 
L 43.21875 27.484375 
z
M 52.203125 31.203125 
L 52.203125 0 
L 43.21875 0 
L 43.21875 8.296875 
Q 40.140625 3.328125 35.546875 0.953125 
Q 30.953125 -1.421875 24.3125 -1.421875 
Q 15.921875 -1.421875 10.953125 3.296875 
Q 6 8.015625 6 15.921875 
Q 6 25.140625 12.171875 29.828125 
Q 18.359375 34.515625 30.609375 34.515625 
L 43.21875 34.515625 
L 43.21875 35.40625 
Q 43.21875 41.609375 39.140625 45 
Q 35.0625 48.390625 27.6875 48.390625 
Q 23 48.390625 18.546875 47.265625 
Q 14.109375 46.140625 10.015625 43.890625 
L 10.015625 52.203125 
Q 14.9375 54.109375 19.578125 55.046875 
Q 24.21875 56 28.609375 56 
Q 40.484375 56 46.34375 49.84375 
Q 52.203125 43.703125 52.203125 31.203125 
" id="BitstreamVeraSans-Roman-61"/>
      <path d="M 48.78125 52.59375 
L 48.78125 44.1875 
Q 44.96875 46.296875 41.140625 47.34375 
Q 37.3125 48.390625 33.40625 48.390625 
Q 24.65625 48.390625 19.8125 42.84375 
Q 14.984375 37.3125 14.984375 27.296875 
Q 14.984375 17.28125 19.8125 11.734375 
Q 24.65625 6.203125 33.40625 6.203125 
Q 37.3125 6.203125 41.140625 7.25 
Q 44.96875 8.296875 48.78125 10.40625 
L 48.78125 2.09375 
Q 45.015625 0.34375 40.984375 -0.53125 
Q 36.96875 -1.421875 32.421875 -1.421875 
Q 20.0625 -1.421875 12.78125 6.34375 
Q 5.515625 14.109375 5.515625 27.296875 
Q 5.515625 40.671875 12.859375 48.328125 
Q 20.21875 56 33.015625 56 
Q 37.15625 56 41.109375 55.140625 
Q 45.0625 54.296875 48.78125 52.59375 
" id="BitstreamVeraSans-Roman-63"/>
     </defs>
     <g transform="translate(41.420625 293.986875)rotate(-90.0)scale(0.12 -0.12)">
      <use xlink:href="#BitstreamVeraSans-Roman-49"/>
      <use x="29.4921875" xlink:href="#BitstreamVeraSans-Roman-6e"/>
      <use x="92.87109375" xlink:href="#BitstreamVeraSans-Roman-66"/>
      <use x="128.076171875" xlink:href="#BitstreamVeraSans-Roman-6f"/>
      <use x="189.2578125" xlink:href="#BitstreamVeraSans-Roman-72"/>
      <use x="230.35546875" xlink:href="#BitstreamVeraSans-Roman-6d"/>
      <use x="327.767578125" xlink:href="#BitstreamVeraSans-Roman-61"/>
      <use x="389.046875" xlink:href="#BitstreamVeraSans-Roman-74"/>
      <use x="428.255859375" xlink:href="#BitstreamVeraSans-Roman-69"/>
      <use x="456.0390625" xlink:href="#BitstreamVeraSans-Roman-76"/>
      <use x="515.21875" xlink:href="#BitstreamVeraSans-Roman-65"/>
      <use x="576.7421875" xlink:href="#BitstreamVeraSans-Roman-6e"/>
      <use x="640.12109375" xlink:href="#BitstreamVeraSans-Roman-65"/>
      <use x="701.64453125" xlink:href="#BitstreamVeraSans-Roman-73"/>
      <use x="753.744140625" xlink:href="#BitstreamVeraSans-Roman-73"/>
      <use x="805.84375" xlink:href="#BitstreamVeraSans-Roman-20"/>
      <use x="837.630859375" xlink:href="#BitstreamVeraSans-Roman-28"/>
      <use x="876.64453125" xlink:href="#BitstreamVeraSans-Roman-66"/>
      <use x="911.849609375" xlink:href="#BitstreamVeraSans-Roman-72"/>
      <use x="952.962890625" xlink:href="#BitstreamVeraSans-Roman-61"/>
      <use x="1014.2421875" xlink:href="#BitstreamVeraSans-Roman-63"/>
      <use x="1069.22265625" xlink:href="#BitstreamVeraSans-Roman-74"/>
      <use x="1108.43164062" xlink:href="#BitstreamVeraSans-Roman-69"/>
      <use x="1136.21484375" xlink:href="#BitstreamVeraSans-Roman-6f"/>
      <use x="1197.39648438" xlink:href="#BitstreamVeraSans-Roman-6e"/>
      <use x="1260.77539062" xlink:href="#BitstreamVeraSans-Roman-29"/>
     </g>
    </g>
   </g>
   <g id="text_16">
    <!-- Informativeness curves for different alpha, filtered -->
    <defs>
     <path d="M 11.71875 12.40625 
L 22.015625 12.40625 
L 22.015625 4 
L 14.015625 -11.625 
L 7.71875 -11.625 
L 11.71875 4 
z
" id="BitstreamVeraSans-Roman-2c"/>
     <path d="M 8.5 21.578125 
L 8.5 54.6875 
L 17.484375 54.6875 
L 17.484375 21.921875 
Q 17.484375 14.15625 20.5 10.265625 
Q 23.53125 6.390625 29.59375 6.390625 
Q 36.859375 6.390625 41.078125 11.03125 
Q 45.3125 15.671875 45.3125 23.6875 
L 45.3125 54.6875 
L 54.296875 54.6875 
L 54.296875 0 
L 45.3125 0 
L 45.3125 8.40625 
Q 42.046875 3.421875 37.71875 1 
Q 33.40625 -1.421875 27.6875 -1.421875 
Q 18.265625 -1.421875 13.375 4.4375 
Q 8.5 10.296875 8.5 21.578125 
" id="BitstreamVeraSans-Roman-75"/>
     <path d="M 18.109375 8.203125 
L 18.109375 -20.796875 
L 9.078125 -20.796875 
L 9.078125 54.6875 
L 18.109375 54.6875 
L 18.109375 46.390625 
Q 20.953125 51.265625 25.265625 53.625 
Q 29.59375 56 35.59375 56 
Q 45.5625 56 51.78125 48.09375 
Q 58.015625 40.1875 58.015625 27.296875 
Q 58.015625 14.40625 51.78125 6.484375 
Q 45.5625 -1.421875 35.59375 -1.421875 
Q 29.59375 -1.421875 25.265625 0.953125 
Q 20.953125 3.328125 18.109375 8.203125 
M 48.6875 27.296875 
Q 48.6875 37.203125 44.609375 42.84375 
Q 40.53125 48.484375 33.40625 48.484375 
Q 26.265625 48.484375 22.1875 42.84375 
Q 18.109375 37.203125 18.109375 27.296875 
Q 18.109375 17.390625 22.1875 11.75 
Q 26.265625 6.109375 33.40625 6.109375 
Q 40.53125 6.109375 44.609375 11.75 
Q 48.6875 17.390625 48.6875 27.296875 
" id="BitstreamVeraSans-Roman-70"/>
     <path d="M 9.421875 75.984375 
L 18.40625 75.984375 
L 18.40625 0 
L 9.421875 0 
z
" id="BitstreamVeraSans-Roman-6c"/>
     <path d="M 54.890625 33.015625 
L 54.890625 0 
L 45.90625 0 
L 45.90625 32.71875 
Q 45.90625 40.484375 42.875 44.328125 
Q 39.84375 48.1875 33.796875 48.1875 
Q 26.515625 48.1875 22.3125 43.546875 
Q 18.109375 38.921875 18.109375 30.90625 
L 18.109375 0 
L 9.078125 0 
L 9.078125 75.984375 
L 18.109375 75.984375 
L 18.109375 46.1875 
Q 21.34375 51.125 25.703125 53.5625 
Q 30.078125 56 35.796875 56 
Q 45.21875 56 50.046875 50.171875 
Q 54.890625 44.34375 54.890625 33.015625 
" id="BitstreamVeraSans-Roman-68"/>
    </defs>
    <g transform="translate(113.076 38.2)scale(0.144 -0.144)">
     <use xlink:href="#BitstreamVeraSans-Roman-49"/>
     <use x="29.4921875" xlink:href="#BitstreamVeraSans-Roman-6e"/>
     <use x="92.87109375" xlink:href="#BitstreamVeraSans-Roman-66"/>
     <use x="128.076171875" xlink:href="#BitstreamVeraSans-Roman-6f"/>
     <use x="189.2578125" xlink:href="#BitstreamVeraSans-Roman-72"/>
     <use x="230.35546875" xlink:href="#BitstreamVeraSans-Roman-6d"/>
     <use x="327.767578125" xlink:href="#BitstreamVeraSans-Roman-61"/>
     <use x="389.046875" xlink:href="#BitstreamVeraSans-Roman-74"/>
     <use x="428.255859375" xlink:href="#BitstreamVeraSans-Roman-69"/>
     <use x="456.0390625" xlink:href="#BitstreamVeraSans-Roman-76"/>
     <use x="515.21875" xlink:href="#BitstreamVeraSans-Roman-65"/>
     <use x="576.7421875" xlink:href="#BitstreamVeraSans-Roman-6e"/>
     <use x="640.12109375" xlink:href="#BitstreamVeraSans-Roman-65"/>
     <use x="701.64453125" xlink:href="#BitstreamVeraSans-Roman-73"/>
     <use x="753.744140625" xlink:href="#BitstreamVeraSans-Roman-73"/>
     <use x="805.84375" xlink:href="#BitstreamVeraSans-Roman-20"/>
     <use x="837.630859375" xlink:href="#BitstreamVeraSans-Roman-63"/>
     <use x="892.611328125" xlink:href="#BitstreamVeraSans-Roman-75"/>
     <use x="955.990234375" xlink:href="#BitstreamVeraSans-Roman-72"/>
     <use x="997.103515625" xlink:href="#BitstreamVeraSans-Roman-76"/>
     <use x="1056.28320312" xlink:href="#BitstreamVeraSans-Roman-65"/>
     <use x="1117.80664062" xlink:href="#BitstreamVeraSans-Roman-73"/>
     <use x="1169.90625" xlink:href="#BitstreamVeraSans-Roman-20"/>
     <use x="1201.69335938" xlink:href="#BitstreamVeraSans-Roman-66"/>
     <use x="1236.8984375" xlink:href="#BitstreamVeraSans-Roman-6f"/>
     <use x="1298.08007812" xlink:href="#BitstreamVeraSans-Roman-72"/>
     <use x="1339.19335938" xlink:href="#BitstreamVeraSans-Roman-20"/>
     <use x="1370.98046875" xlink:href="#BitstreamVeraSans-Roman-64"/>
     <use x="1434.45703125" xlink:href="#BitstreamVeraSans-Roman-69"/>
     <use x="1462.24023438" xlink:href="#BitstreamVeraSans-Roman-66"/>
     <use x="1497.4453125" xlink:href="#BitstreamVeraSans-Roman-66"/>
     <use x="1532.65039062" xlink:href="#BitstreamVeraSans-Roman-65"/>
     <use x="1594.17382812" xlink:href="#BitstreamVeraSans-Roman-72"/>
     <use x="1635.25585938" xlink:href="#BitstreamVeraSans-Roman-65"/>
     <use x="1696.77929688" xlink:href="#BitstreamVeraSans-Roman-6e"/>
     <use x="1760.15820312" xlink:href="#BitstreamVeraSans-Roman-74"/>
     <use x="1799.3671875" xlink:href="#BitstreamVeraSans-Roman-20"/>
     <use x="1831.15429688" xlink:href="#BitstreamVeraSans-Roman-61"/>
     <use x="1892.43359375" xlink:href="#BitstreamVeraSans-Roman-6c"/>
     <use x="1920.21679688" xlink:href="#BitstreamVeraSans-Roman-70"/>
     <use x="1983.69335938" xlink:href="#BitstreamVeraSans-Roman-68"/>
     <use x="2047.07226562" xlink:href="#BitstreamVeraSans-Roman-61"/>
     <use x="2108.3515625" xlink:href="#BitstreamVeraSans-Roman-2c"/>
     <use x="2140.13867188" xlink:href="#BitstreamVeraSans-Roman-20"/>
     <use x="2171.92578125" xlink:href="#BitstreamVeraSans-Roman-66"/>
     <use x="2207.13085938" xlink:href="#BitstreamVeraSans-Roman-69"/>
     <use x="2234.9140625" xlink:href="#BitstreamVeraSans-Roman-6c"/>
     <use x="2262.69726562" xlink:href="#BitstreamVeraSans-Roman-74"/>
     <use x="2301.90625" xlink:href="#BitstreamVeraSans-Roman-65"/>
     <use x="2363.4296875" xlink:href="#BitstreamVeraSans-Roman-72"/>
     <use x="2404.51171875" xlink:href="#BitstreamVeraSans-Roman-65"/>
     <use x="2466.03515625" xlink:href="#BitstreamVeraSans-Roman-64"/>
    </g>
   </g>
  </g>
 </g>
 <defs>
  <clipPath id="pd91d97ed6a">
   <rect height="345.6" width="446.4" x="72.0" y="43.2"/>
  </clipPath>
 </defs>
</svg>
