<?xml version="1.0" encoding="utf-8" standalone="no"?>
<!DOCTYPE svg PUBLIC "-//W3C//DTD SVG 1.1//EN"
  "http://www.w3.org/Graphics/SVG/1.1/DTD/svg11.dtd">
<!-- Created with matplotlib (http://matplotlib.org/) -->
<svg height="432pt" version="1.1" viewBox="0 0 576 432" width="576pt" xmlns="http://www.w3.org/2000/svg" xmlns:xlink="http://www.w3.org/1999/xlink">
 <defs>
  <style type="text/css">
*{stroke-linecap:butt;stroke-linejoin:round;stroke-miterlimit:100000;}
  </style>
 </defs>
 <g id="figure_1">
  <g id="patch_1">
   <path d="M 0 432 
L 576 432 
L 576 0 
L 0 0 
z
" style="fill:#ffffff;"/>
  </g>
  <g id="axes_1">
   <g id="patch_2">
    <path d="M 72 388.8 
L 518.4 388.8 
L 518.4 43.2 
L 72 43.2 
z
" style="fill:#ffffff;"/>
   </g>
   <g id="line2d_1">
    <path clip-path="url(#pec4f3fca39)" d="M 72 388.8 
L 299.664 388.8 
L 300.1104 388.422707 
L 312.6096 388.422707 
L 313.056 388.045415 
L 315.7344 388.045415 
L 316.1808 387.668122 
L 319.3056 387.668122 
L 319.752 387.29083 
L 321.0912 387.29083 
L 321.5376 386.913537 
L 323.7696 386.913537 
L 324.216 386.536245 
L 324.6624 386.536245 
L 325.1088 386.158952 
L 326.0016 386.158952 
L 326.448 385.781659 
L 327.7872 385.781659 
L 328.2336 385.404367 
L 328.68 385.404367 
L 329.1264 385.027074 
L 329.5728 385.027074 
L 330.0192 384.649782 
L 330.4656 384.649782 
L 330.912 384.272489 
L 331.3584 384.272489 
L 331.8048 383.895197 
L 333.5904 383.895197 
L 334.0368 383.517904 
L 334.4832 381.631441 
L 334.9296 378.235808 
L 335.376 376.726638 
L 335.8224 376.349345 
L 336.2688 374.840175 
L 336.7152 374.462882 
L 337.1616 372.576419 
L 337.608 372.199127 
L 338.0544 371.444541 
L 339.3936 370.312664 
L 339.84 363.521397 
L 340.2864 362.38952 
L 341.1792 336.356332 
L 341.6256 335.601747 
L 342.072 327.30131 
L 342.5184 326.924017 
L 342.9648 326.169432 
L 344.7504 324.660262 
L 345.1968 323.905677 
L 345.6432 322.773799 
L 346.0896 322.396507 
L 346.9824 320.887336 
L 349.2144 319.000873 
L 349.6608 318.246288 
L 350.1072 317.868996 
L 350.5536 317.11441 
L 351.4464 316.359825 
L 351.8928 315.60524 
L 352.3392 315.227948 
L 352.7856 312.5869 
L 353.6784 306.172926 
L 355.0176 303.90917 
L 355.464 303.531878 
L 355.9104 299.758952 
L 356.3568 299.381659 
L 356.8032 297.117904 
L 357.696 280.517031 
L 358.1424 269.198253 
L 359.0352 268.443668 
L 359.4816 267.689083 
L 361.2672 232.978166 
L 361.7136 219.395633 
L 362.6064 218.641048 
L 363.0528 211.472489 
L 363.9456 210.717904 
L 364.392 209.963319 
L 364.8384 209.586026 
L 365.7312 208.076856 
L 366.1776 207.699563 
L 366.624 206.944978 
L 370.1952 203.926638 
L 370.6416 203.172052 
L 371.088 202.79476 
L 371.5344 190.721397 
L 371.9808 190.344105 
L 372.4272 178.270742 
L 372.8736 177.89345 
L 373.32 164.68821 
L 373.7664 154.878603 
L 374.6592 154.124017 
L 375.1056 142.80524 
L 378.2304 140.164192 
L 378.6768 139.409607 
L 380.4624 137.900437 
L 380.9088 137.145852 
L 383.1408 135.259389 
L 384.0336 133.750218 
L 390.7296 128.09083 
L 391.176 126.581659 
L 392.0688 125.827074 
L 392.5152 124.695197 
L 392.9616 123.940611 
L 395.1936 122.054148 
L 395.64 120.922271 
L 402.336 115.262882 
L 402.7824 114.131004 
L 404.568 112.621834 
L 405.0144 111.867249 
L 422.424 97.152838 
L 422.8704 97.152838 
L 423.3168 96.398253 
L 424.2096 95.643668 
L 424.656 95.643668 
L 425.1024 94.889083 
L 430.0128 90.738865 
L 430.4592 90.738865 
L 430.9056 89.984279 
L 431.352 89.984279 
L 431.7984 89.229694 
L 432.2448 88.852402 
L 432.6912 88.852402 
L 433.1376 88.097817 
L 433.584 88.097817 
L 434.0304 87.343231 
L 434.4768 86.965939 
L 434.9232 85.834061 
L 435.816 85.834061 
L 436.2624 84.702183 
L 437.1552 83.947598 
L 437.6016 83.947598 
L 438.048 83.570306 
L 438.4944 82.815721 
L 438.9408 82.815721 
L 439.3872 82.061135 
L 440.7264 80.929258 
L 442.0656 80.929258 
L 442.512 79.420087 
L 442.9584 79.420087 
L 443.4048 78.665502 
L 444.744 78.665502 
L 445.1904 77.156332 
L 446.5296 77.156332 
L 446.976 75.647162 
L 447.4224 75.647162 
L 447.8688 74.892576 
L 449.6544 73.383406 
L 450.5472 73.383406 
L 450.9936 71.874236 
L 451.44 71.496943 
L 454.1184 71.496943 
L 454.5648 68.478603 
L 455.904 68.478603 
L 456.3504 66.59214 
L 461.2608 66.59214 
L 461.7072 61.687336 
L 466.1712 61.687336 
L 466.6176 61.310044 
L 467.064 55.650655 
L 480.456 55.650655 
L 480.9024 55.273362 
L 480.9024 55.273362 
" style="fill:none;stroke:#0000ff;stroke-linecap:square;"/>
   </g>
   <g id="line2d_2">
    <path clip-path="url(#pec4f3fca39)" d="M 72 388.8 
L 281.808 388.8 
L 282.2544 388.422707 
L 289.3968 388.422707 
L 289.8432 388.045415 
L 292.0752 388.045415 
L 292.5216 387.668122 
L 293.8608 387.668122 
L 294.7536 386.913537 
L 295.2 386.158952 
L 295.6464 386.158952 
L 296.0928 385.027074 
L 296.5392 383.140611 
L 296.9856 376.349345 
L 297.432 371.444541 
L 297.8784 369.935371 
L 298.3248 351.825328 
L 298.7712 347.675109 
L 299.2176 342.393013 
L 299.664 332.206114 
L 300.5568 317.491703 
L 301.0032 313.718777 
L 301.4496 312.209607 
L 301.896 301.268122 
L 302.3424 237.128384 
L 302.7888 229.582533 
L 303.2352 225.055022 
L 303.6816 214.49083 
L 304.128 212.604367 
L 304.5744 209.586026 
L 305.0208 209.586026 
L 305.4672 209.208734 
L 305.9136 205.435808 
L 306.36 203.926638 
L 306.8064 195.248908 
L 307.2528 194.494323 
L 308.1456 176.761572 
L 308.592 174.875109 
L 309.0384 169.215721 
L 309.4848 169.215721 
L 309.9312 168.083843 
L 310.3776 167.329258 
L 310.824 163.179039 
L 311.7168 162.424454 
L 312.1632 158.274236 
L 312.6096 157.519651 
L 313.056 155.633188 
L 313.5024 154.878603 
L 313.9488 153.746725 
L 314.3952 153.746725 
L 315.288 152.99214 
L 316.1808 152.99214 
L 316.6272 151.860262 
L 317.0736 151.860262 
L 317.52 150.351092 
L 317.9664 149.973799 
L 318.4128 147.710044 
L 318.8592 147.332751 
L 319.3056 146.578166 
L 320.1984 145.823581 
L 320.6448 144.691703 
L 321.0912 143.937118 
L 321.984 143.937118 
L 322.4304 142.427948 
L 322.8768 142.050655 
L 323.3232 141.29607 
L 323.7696 139.7869 
L 324.216 139.032314 
L 324.6624 138.655022 
L 325.1088 138.655022 
L 325.5552 138.277729 
L 326.0016 138.277729 
L 326.448 137.900437 
L 327.3408 137.900437 
L 327.7872 137.523144 
L 328.68 137.523144 
L 329.1264 136.768559 
L 330.4656 135.636681 
L 330.912 135.636681 
L 331.3584 134.127511 
L 331.8048 134.127511 
L 332.6976 133.372926 
L 333.144 133.372926 
L 333.5904 132.618341 
L 334.0368 132.241048 
L 334.4832 132.241048 
L 334.9296 131.863755 
L 335.376 131.863755 
L 335.8224 131.486463 
L 336.2688 131.486463 
L 337.1616 130.731878 
L 338.5008 130.731878 
L 338.9472 130.354585 
L 339.84 130.354585 
L 340.7328 129.6 
L 342.072 129.6 
L 342.5184 129.222707 
L 342.9648 128.468122 
L 343.4112 128.468122 
L 343.8576 127.336245 
L 344.304 127.336245 
L 345.6432 126.204367 
L 346.0896 126.204367 
L 346.536 125.827074 
L 347.8752 125.827074 
L 348.3216 125.449782 
L 348.768 125.449782 
L 349.2144 125.072489 
L 349.6608 125.072489 
L 350.1072 124.695197 
L 350.5536 124.695197 
L 351 123.940611 
L 351.4464 123.940611 
L 351.8928 123.563319 
L 352.3392 123.563319 
L 352.7856 122.808734 
L 353.232 122.808734 
L 353.6784 122.431441 
L 354.1248 122.431441 
L 354.5712 121.299563 
L 355.0176 120.922271 
L 355.464 120.922271 
L 355.9104 120.544978 
L 356.8032 120.544978 
L 357.2496 120.167686 
L 357.696 120.167686 
L 358.1424 119.4131 
L 359.0352 119.4131 
L 359.4816 119.035808 
L 360.8208 119.035808 
L 361.7136 118.281223 
L 362.16 118.281223 
L 362.6064 117.90393 
L 363.0528 117.90393 
L 363.9456 117.149345 
L 364.8384 117.149345 
L 365.2848 116.772052 
L 365.7312 116.772052 
L 366.1776 116.39476 
L 366.624 116.39476 
L 367.0704 116.017467 
L 368.856 116.017467 
L 370.1952 114.88559 
L 370.6416 114.88559 
L 371.088 114.131004 
L 371.5344 114.131004 
L 372.4272 113.376419 
L 372.8736 113.376419 
L 373.32 112.621834 
L 374.2128 112.621834 
L 374.6592 111.489956 
L 375.552 111.489956 
L 375.9984 111.112664 
L 376.4448 111.112664 
L 376.8912 110.735371 
L 377.3376 109.980786 
L 378.6768 109.980786 
L 379.5696 109.226201 
L 380.016 109.226201 
L 380.9088 108.471616 
L 381.8016 108.471616 
L 382.248 108.094323 
L 382.6944 108.094323 
L 383.1408 107.717031 
L 384.0336 107.717031 
L 384.48 107.339738 
L 385.3728 107.339738 
L 385.8192 106.962445 
L 386.2656 106.962445 
L 386.712 105.830568 
L 387.1584 105.830568 
L 388.0512 105.075983 
L 389.8368 105.075983 
L 390.7296 104.321397 
L 391.6224 104.321397 
L 392.0688 103.944105 
L 392.9616 103.944105 
L 393.408 103.18952 
L 394.3008 103.18952 
L 394.7472 102.812227 
L 395.64 102.812227 
L 396.0864 101.303057 
L 397.4256 101.303057 
L 398.3184 100.548472 
L 399.2112 100.548472 
L 399.6576 100.171179 
L 400.104 100.171179 
L 400.5504 99.793886 
L 401.4432 99.793886 
L 401.8896 99.416594 
L 403.2288 99.416594 
L 404.1216 98.662009 
L 405.0144 98.662009 
L 405.9072 97.907424 
L 406.3536 97.907424 
L 407.6928 96.775546 
L 408.5856 96.775546 
L 409.032 96.398253 
L 409.4784 96.398253 
L 409.9248 95.266376 
L 410.3712 95.266376 
L 411.264 94.51179 
L 411.7104 93.757205 
L 412.1568 93.757205 
L 412.6032 92.625328 
L 413.0496 92.248035 
L 413.496 92.248035 
L 413.9424 91.870742 
L 414.8352 91.870742 
L 415.2816 91.49345 
L 416.1744 91.49345 
L 416.6208 90.738865 
L 419.7456 88.097817 
L 420.6384 88.097817 
L 421.5312 87.343231 
L 421.9776 87.343231 
L 422.8704 86.588646 
L 423.3168 85.834061 
L 423.7632 84.702183 
L 424.656 84.702183 
L 425.1024 84.324891 
L 425.5488 84.324891 
L 425.9952 83.947598 
L 426.4416 83.947598 
L 426.888 83.570306 
L 427.3344 83.570306 
L 427.7808 83.193013 
L 428.2272 82.061135 
L 430.0128 82.061135 
L 430.9056 81.30655 
L 432.2448 81.30655 
L 432.6912 80.929258 
L 433.1376 80.929258 
L 433.584 79.420087 
L 434.0304 78.665502 
L 434.4768 78.665502 
L 434.9232 77.910917 
L 435.3696 77.910917 
L 435.816 77.533624 
L 436.2624 77.533624 
L 436.7088 77.156332 
L 437.1552 76.024454 
L 437.6016 75.647162 
L 438.4944 75.647162 
L 438.9408 75.269869 
L 440.28 75.269869 
L 440.7264 74.892576 
L 441.1728 74.892576 
L 441.6192 74.515284 
L 442.0656 74.515284 
L 442.512 74.137991 
L 443.4048 74.137991 
L 444.2976 73.383406 
L 444.744 73.383406 
L 445.1904 72.628821 
L 446.0832 71.874236 
L 446.976 71.874236 
L 447.4224 70.365066 
L 448.3152 70.365066 
L 449.208 68.855895 
L 450.1008 68.855895 
L 450.9936 68.10131 
L 451.44 68.10131 
L 452.3328 67.346725 
L 452.7792 67.346725 
L 453.2256 66.969432 
L 453.672 66.969432 
L 454.5648 64.705677 
L 455.0112 63.951092 
L 455.4576 63.573799 
L 455.904 63.573799 
L 456.3504 63.196507 
L 457.2432 63.196507 
L 457.6896 62.819214 
L 458.5824 62.819214 
L 459.0288 62.441921 
L 460.368 62.441921 
L 460.8144 62.064629 
L 461.2608 62.064629 
L 461.7072 59.423581 
L 462.1536 59.046288 
L 462.6 58.291703 
L 463.0464 57.91441 
L 463.4928 57.91441 
L 463.9392 57.159825 
L 464.3856 56.782533 
L 464.832 56.782533 
L 465.2784 56.40524 
L 465.7248 56.40524 
L 466.1712 56.027948 
L 466.6176 56.027948 
L 467.064 55.650655 
L 480.456 55.650655 
L 480.9024 55.273362 
L 480.9024 55.273362 
" style="fill:none;stroke:#ff0000;stroke-linecap:square;"/>
   </g>
   <g id="line2d_3">
    <path clip-path="url(#pec4f3fca39)" d="M 72 388.8 
L 270.2016 388.8 
L 270.648 388.422707 
L 273.3264 388.422707 
L 273.7728 387.29083 
L 274.2192 385.781659 
L 274.6656 385.027074 
L 275.112 327.678603 
L 275.5584 317.868996 
L 276.0048 255.615721 
L 276.4512 254.483843 
L 276.8976 236.751092 
L 277.344 226.941485 
L 277.7904 212.604367 
L 278.2368 212.227074 
L 278.6832 205.435808 
L 279.1296 204.681223 
L 279.576 204.30393 
L 280.0224 202.79476 
L 280.4688 202.79476 
L 281.3616 192.230568 
L 281.808 190.344105 
L 282.2544 189.58952 
L 282.7008 180.534498 
L 283.1472 179.40262 
L 283.5936 171.856769 
L 284.04 170.724891 
L 284.4864 166.19738 
L 284.9328 165.820087 
L 285.3792 165.065502 
L 285.8256 162.047162 
L 286.272 162.047162 
L 286.7184 160.537991 
L 287.1648 159.783406 
L 287.6112 159.406114 
L 288.0576 159.406114 
L 288.504 158.274236 
L 289.3968 152.99214 
L 289.8432 152.99214 
L 290.736 150.728384 
L 291.6288 150.728384 
L 292.0752 150.351092 
L 292.5216 149.596507 
L 293.8608 148.464629 
L 294.3072 147.332751 
L 295.2 146.578166 
L 295.6464 145.823581 
L 296.0928 144.691703 
L 296.5392 143.937118 
L 296.9856 143.937118 
L 297.432 143.182533 
L 297.8784 142.80524 
L 298.3248 142.80524 
L 298.7712 142.427948 
L 299.2176 141.673362 
L 299.664 140.541485 
L 300.5568 140.541485 
L 301.0032 140.164192 
L 301.896 138.655022 
L 302.3424 138.655022 
L 302.7888 138.277729 
L 303.6816 138.277729 
L 304.5744 137.523144 
L 305.4672 136.013974 
L 305.9136 136.013974 
L 306.36 134.882096 
L 306.8064 134.127511 
L 307.2528 133.750218 
L 307.6992 133.750218 
L 308.592 132.241048 
L 309.0384 131.863755 
L 309.9312 131.863755 
L 310.824 131.10917 
L 311.2704 131.10917 
L 311.7168 129.6 
L 312.1632 129.6 
L 312.6096 129.222707 
L 313.056 129.222707 
L 313.5024 128.468122 
L 314.8416 128.468122 
L 315.288 128.09083 
L 316.1808 128.09083 
L 316.6272 127.336245 
L 317.0736 127.336245 
L 317.52 126.958952 
L 317.9664 126.958952 
L 319.752 125.449782 
L 320.1984 125.449782 
L 320.6448 125.072489 
L 321.0912 125.072489 
L 321.5376 124.695197 
L 321.984 123.940611 
L 322.8768 123.186026 
L 323.3232 123.186026 
L 323.7696 122.808734 
L 324.216 122.808734 
L 324.6624 122.054148 
L 325.1088 121.676856 
L 325.5552 121.676856 
L 326.0016 121.299563 
L 327.7872 121.299563 
L 328.2336 120.922271 
L 329.1264 120.922271 
L 329.5728 120.544978 
L 330.0192 120.544978 
L 330.4656 120.167686 
L 332.2512 120.167686 
L 332.6976 119.4131 
L 333.144 119.4131 
L 333.5904 119.035808 
L 334.4832 119.035808 
L 335.376 118.281223 
L 336.7152 118.281223 
L 337.1616 117.90393 
L 338.0544 117.90393 
L 338.5008 117.526638 
L 339.3936 117.526638 
L 339.84 116.772052 
L 341.1792 116.772052 
L 341.6256 116.39476 
L 342.5184 116.39476 
L 342.9648 116.017467 
L 343.8576 116.017467 
L 344.304 115.640175 
L 344.7504 115.640175 
L 346.0896 114.508297 
L 346.9824 114.508297 
L 347.4288 114.131004 
L 348.3216 114.131004 
L 348.768 113.753712 
L 349.6608 113.753712 
L 350.1072 113.376419 
L 351.4464 113.376419 
L 351.8928 112.621834 
L 352.3392 112.621834 
L 352.7856 112.244541 
L 353.232 112.244541 
L 353.6784 111.867249 
L 354.5712 111.867249 
L 355.0176 111.489956 
L 355.464 111.489956 
L 356.8032 110.358079 
L 357.696 110.358079 
L 358.1424 109.980786 
L 358.5888 109.980786 
L 359.0352 109.603493 
L 359.928 109.603493 
L 360.3744 109.226201 
L 361.2672 109.226201 
L 362.16 108.471616 
L 363.0528 108.471616 
L 363.4992 107.717031 
L 365.2848 106.20786 
L 367.9632 106.20786 
L 368.4096 105.453275 
L 368.856 105.075983 
L 369.3024 104.321397 
L 370.6416 104.321397 
L 371.088 103.944105 
L 371.5344 103.944105 
L 372.4272 103.18952 
L 372.8736 103.18952 
L 373.7664 102.434934 
L 374.6592 102.434934 
L 375.1056 102.057642 
L 375.9984 102.057642 
L 376.8912 101.303057 
L 378.6768 101.303057 
L 379.1232 100.925764 
L 380.016 100.925764 
L 380.9088 100.171179 
L 382.248 100.171179 
L 382.6944 99.416594 
L 383.5872 99.416594 
L 384.0336 99.039301 
L 384.48 99.039301 
L 384.9264 98.662009 
L 386.2656 98.662009 
L 387.1584 97.907424 
L 388.944 97.907424 
L 389.3904 97.530131 
L 389.8368 97.530131 
L 390.2832 97.152838 
L 390.7296 97.152838 
L 391.6224 96.398253 
L 392.0688 96.398253 
L 392.9616 95.643668 
L 394.3008 95.643668 
L 394.7472 94.889083 
L 395.64 94.889083 
L 396.0864 94.134498 
L 397.4256 94.134498 
L 398.3184 93.379913 
L 398.7648 93.379913 
L 399.2112 93.00262 
L 399.6576 93.00262 
L 400.5504 92.248035 
L 401.8896 92.248035 
L 402.336 91.116157 
L 402.7824 90.738865 
L 403.6752 90.738865 
L 404.568 89.984279 
L 405.0144 89.984279 
L 405.4608 89.606987 
L 405.9072 89.606987 
L 406.3536 89.229694 
L 407.6928 89.229694 
L 409.032 88.097817 
L 409.4784 87.343231 
L 409.9248 87.343231 
L 410.8176 86.588646 
L 411.264 86.588646 
L 412.6032 85.456769 
L 413.0496 85.456769 
L 413.496 83.947598 
L 413.9424 83.570306 
L 414.3888 82.815721 
L 415.728 82.815721 
L 416.6208 82.061135 
L 417.5136 82.061135 
L 417.96 81.30655 
L 418.4064 81.30655 
L 419.2992 80.551965 
L 420.192 80.551965 
L 420.6384 80.174672 
L 421.5312 80.174672 
L 421.9776 79.042795 
L 422.424 78.665502 
L 424.2096 78.665502 
L 425.1024 77.910917 
L 425.9952 77.910917 
L 426.4416 77.156332 
L 426.888 77.156332 
L 427.3344 76.779039 
L 427.7808 76.779039 
L 428.2272 76.401747 
L 428.6736 76.401747 
L 429.12 75.647162 
L 429.5664 75.269869 
L 430.0128 75.269869 
L 430.4592 74.892576 
L 430.9056 74.892576 
L 431.352 74.515284 
L 432.2448 74.515284 
L 432.6912 74.137991 
L 434.0304 74.137991 
L 434.9232 73.383406 
L 435.3696 73.383406 
L 436.7088 72.251528 
L 437.1552 72.251528 
L 437.6016 71.496943 
L 438.4944 71.496943 
L 438.9408 70.742358 
L 439.8336 70.742358 
L 440.28 69.987773 
L 440.7264 69.61048 
L 441.1728 69.61048 
L 441.6192 69.233188 
L 442.0656 69.233188 
L 442.512 68.855895 
L 443.4048 68.855895 
L 444.2976 68.10131 
L 444.744 68.10131 
L 445.1904 67.724017 
L 445.6368 66.214847 
L 446.0832 66.214847 
L 446.5296 64.705677 
L 447.4224 63.951092 
L 448.3152 63.951092 
L 448.7616 63.196507 
L 449.208 63.196507 
L 449.6544 62.819214 
L 450.1008 62.819214 
L 450.5472 62.441921 
L 451.44 62.441921 
L 451.8864 62.064629 
L 452.3328 60.932751 
L 452.7792 60.932751 
L 454.1184 59.800873 
L 455.0112 59.800873 
L 455.4576 59.423581 
L 456.3504 59.423581 
L 456.7968 59.046288 
L 457.6896 59.046288 
L 458.5824 58.291703 
L 459.0288 58.291703 
L 459.4752 57.91441 
L 460.368 57.91441 
L 460.8144 57.537118 
L 461.7072 57.537118 
L 462.1536 57.159825 
L 463.0464 57.159825 
L 463.4928 56.782533 
L 463.9392 56.782533 
L 464.3856 56.40524 
L 465.2784 56.40524 
L 465.7248 56.027948 
L 466.6176 56.027948 
L 467.064 55.650655 
L 480.456 55.650655 
L 480.9024 55.273362 
L 480.9024 55.273362 
" style="fill:none;stroke:#008000;stroke-linecap:square;"/>
   </g>
   <g id="patch_3">
    <path d="M 72 43.2 
L 518.4 43.2 
" style="fill:none;stroke:#000000;stroke-linecap:square;stroke-linejoin:miter;"/>
   </g>
   <g id="patch_4">
    <path d="M 518.4 388.8 
L 518.4 43.2 
" style="fill:none;stroke:#000000;stroke-linecap:square;stroke-linejoin:miter;"/>
   </g>
   <g id="patch_5">
    <path d="M 72 388.8 
L 518.4 388.8 
" style="fill:none;stroke:#000000;stroke-linecap:square;stroke-linejoin:miter;"/>
   </g>
   <g id="patch_6">
    <path d="M 72 388.8 
L 72 43.2 
" style="fill:none;stroke:#000000;stroke-linecap:square;stroke-linejoin:miter;"/>
   </g>
   <g id="matplotlib.axis_1">
    <g id="xtick_1">
     <g id="line2d_4">
      <defs>
       <path d="M 0 0 
L 0 -4 
" id="m86f966dd6a" style="stroke:#000000;stroke-width:0.5;"/>
      </defs>
      <g>
       <use style="stroke:#000000;stroke-width:0.5;" x="72.0" xlink:href="#m86f966dd6a" y="388.8"/>
      </g>
     </g>
     <g id="line2d_5">
      <defs>
       <path d="M 0 0 
L 0 4 
" id="m3cc4d53ce1" style="stroke:#000000;stroke-width:0.5;"/>
      </defs>
      <g>
       <use style="stroke:#000000;stroke-width:0.5;" x="72.0" xlink:href="#m3cc4d53ce1" y="43.2"/>
      </g>
     </g>
     <g id="text_1">
      <!-- 0 -->
      <defs>
       <path d="M 31.78125 66.40625 
Q 24.171875 66.40625 20.328125 58.90625 
Q 16.5 51.421875 16.5 36.375 
Q 16.5 21.390625 20.328125 13.890625 
Q 24.171875 6.390625 31.78125 6.390625 
Q 39.453125 6.390625 43.28125 13.890625 
Q 47.125 21.390625 47.125 36.375 
Q 47.125 51.421875 43.28125 58.90625 
Q 39.453125 66.40625 31.78125 66.40625 
M 31.78125 74.21875 
Q 44.046875 74.21875 50.515625 64.515625 
Q 56.984375 54.828125 56.984375 36.375 
Q 56.984375 17.96875 50.515625 8.265625 
Q 44.046875 -1.421875 31.78125 -1.421875 
Q 19.53125 -1.421875 13.0625 8.265625 
Q 6.59375 17.96875 6.59375 36.375 
Q 6.59375 54.828125 13.0625 64.515625 
Q 19.53125 74.21875 31.78125 74.21875 
" id="BitstreamVeraSans-Roman-30"/>
      </defs>
      <g transform="translate(68.1825 401.918125)scale(0.12 -0.12)">
       <use xlink:href="#BitstreamVeraSans-Roman-30"/>
      </g>
     </g>
    </g>
    <g id="xtick_2">
     <g id="line2d_6">
      <g>
       <use style="stroke:#000000;stroke-width:0.5;" x="161.28" xlink:href="#m86f966dd6a" y="388.8"/>
      </g>
     </g>
     <g id="line2d_7">
      <g>
       <use style="stroke:#000000;stroke-width:0.5;" x="161.28" xlink:href="#m3cc4d53ce1" y="43.2"/>
      </g>
     </g>
     <g id="text_2">
      <!-- 200 -->
      <defs>
       <path d="M 19.1875 8.296875 
L 53.609375 8.296875 
L 53.609375 0 
L 7.328125 0 
L 7.328125 8.296875 
Q 12.9375 14.109375 22.625 23.890625 
Q 32.328125 33.6875 34.8125 36.53125 
Q 39.546875 41.84375 41.421875 45.53125 
Q 43.3125 49.21875 43.3125 52.78125 
Q 43.3125 58.59375 39.234375 62.25 
Q 35.15625 65.921875 28.609375 65.921875 
Q 23.96875 65.921875 18.8125 64.3125 
Q 13.671875 62.703125 7.8125 59.421875 
L 7.8125 69.390625 
Q 13.765625 71.78125 18.9375 73 
Q 24.125 74.21875 28.421875 74.21875 
Q 39.75 74.21875 46.484375 68.546875 
Q 53.21875 62.890625 53.21875 53.421875 
Q 53.21875 48.921875 51.53125 44.890625 
Q 49.859375 40.875 45.40625 35.40625 
Q 44.1875 33.984375 37.640625 27.21875 
Q 31.109375 20.453125 19.1875 8.296875 
" id="BitstreamVeraSans-Roman-32"/>
      </defs>
      <g transform="translate(149.8275 401.918125)scale(0.12 -0.12)">
       <use xlink:href="#BitstreamVeraSans-Roman-32"/>
       <use x="63.623046875" xlink:href="#BitstreamVeraSans-Roman-30"/>
       <use x="127.24609375" xlink:href="#BitstreamVeraSans-Roman-30"/>
      </g>
     </g>
    </g>
    <g id="xtick_3">
     <g id="line2d_8">
      <g>
       <use style="stroke:#000000;stroke-width:0.5;" x="250.56" xlink:href="#m86f966dd6a" y="388.8"/>
      </g>
     </g>
     <g id="line2d_9">
      <g>
       <use style="stroke:#000000;stroke-width:0.5;" x="250.56" xlink:href="#m3cc4d53ce1" y="43.2"/>
      </g>
     </g>
     <g id="text_3">
      <!-- 400 -->
      <defs>
       <path d="M 37.796875 64.3125 
L 12.890625 25.390625 
L 37.796875 25.390625 
z
M 35.203125 72.90625 
L 47.609375 72.90625 
L 47.609375 25.390625 
L 58.015625 25.390625 
L 58.015625 17.1875 
L 47.609375 17.1875 
L 47.609375 0 
L 37.796875 0 
L 37.796875 17.1875 
L 4.890625 17.1875 
L 4.890625 26.703125 
z
" id="BitstreamVeraSans-Roman-34"/>
      </defs>
      <g transform="translate(239.1075 401.918125)scale(0.12 -0.12)">
       <use xlink:href="#BitstreamVeraSans-Roman-34"/>
       <use x="63.623046875" xlink:href="#BitstreamVeraSans-Roman-30"/>
       <use x="127.24609375" xlink:href="#BitstreamVeraSans-Roman-30"/>
      </g>
     </g>
    </g>
    <g id="xtick_4">
     <g id="line2d_10">
      <g>
       <use style="stroke:#000000;stroke-width:0.5;" x="339.84" xlink:href="#m86f966dd6a" y="388.8"/>
      </g>
     </g>
     <g id="line2d_11">
      <g>
       <use style="stroke:#000000;stroke-width:0.5;" x="339.84" xlink:href="#m3cc4d53ce1" y="43.2"/>
      </g>
     </g>
     <g id="text_4">
      <!-- 600 -->
      <defs>
       <path d="M 33.015625 40.375 
Q 26.375 40.375 22.484375 35.828125 
Q 18.609375 31.296875 18.609375 23.390625 
Q 18.609375 15.53125 22.484375 10.953125 
Q 26.375 6.390625 33.015625 6.390625 
Q 39.65625 6.390625 43.53125 10.953125 
Q 47.40625 15.53125 47.40625 23.390625 
Q 47.40625 31.296875 43.53125 35.828125 
Q 39.65625 40.375 33.015625 40.375 
M 52.59375 71.296875 
L 52.59375 62.3125 
Q 48.875 64.0625 45.09375 64.984375 
Q 41.3125 65.921875 37.59375 65.921875 
Q 27.828125 65.921875 22.671875 59.328125 
Q 17.53125 52.734375 16.796875 39.40625 
Q 19.671875 43.65625 24.015625 45.921875 
Q 28.375 48.1875 33.59375 48.1875 
Q 44.578125 48.1875 50.953125 41.515625 
Q 57.328125 34.859375 57.328125 23.390625 
Q 57.328125 12.15625 50.6875 5.359375 
Q 44.046875 -1.421875 33.015625 -1.421875 
Q 20.359375 -1.421875 13.671875 8.265625 
Q 6.984375 17.96875 6.984375 36.375 
Q 6.984375 53.65625 15.1875 63.9375 
Q 23.390625 74.21875 37.203125 74.21875 
Q 40.921875 74.21875 44.703125 73.484375 
Q 48.484375 72.75 52.59375 71.296875 
" id="BitstreamVeraSans-Roman-36"/>
      </defs>
      <g transform="translate(328.3875 401.918125)scale(0.12 -0.12)">
       <use xlink:href="#BitstreamVeraSans-Roman-36"/>
       <use x="63.623046875" xlink:href="#BitstreamVeraSans-Roman-30"/>
       <use x="127.24609375" xlink:href="#BitstreamVeraSans-Roman-30"/>
      </g>
     </g>
    </g>
    <g id="xtick_5">
     <g id="line2d_12">
      <g>
       <use style="stroke:#000000;stroke-width:0.5;" x="429.12" xlink:href="#m86f966dd6a" y="388.8"/>
      </g>
     </g>
     <g id="line2d_13">
      <g>
       <use style="stroke:#000000;stroke-width:0.5;" x="429.12" xlink:href="#m3cc4d53ce1" y="43.2"/>
      </g>
     </g>
     <g id="text_5">
      <!-- 800 -->
      <defs>
       <path d="M 31.78125 34.625 
Q 24.75 34.625 20.71875 30.859375 
Q 16.703125 27.09375 16.703125 20.515625 
Q 16.703125 13.921875 20.71875 10.15625 
Q 24.75 6.390625 31.78125 6.390625 
Q 38.8125 6.390625 42.859375 10.171875 
Q 46.921875 13.96875 46.921875 20.515625 
Q 46.921875 27.09375 42.890625 30.859375 
Q 38.875 34.625 31.78125 34.625 
M 21.921875 38.8125 
Q 15.578125 40.375 12.03125 44.71875 
Q 8.5 49.078125 8.5 55.328125 
Q 8.5 64.0625 14.71875 69.140625 
Q 20.953125 74.21875 31.78125 74.21875 
Q 42.671875 74.21875 48.875 69.140625 
Q 55.078125 64.0625 55.078125 55.328125 
Q 55.078125 49.078125 51.53125 44.71875 
Q 48 40.375 41.703125 38.8125 
Q 48.828125 37.15625 52.796875 32.3125 
Q 56.78125 27.484375 56.78125 20.515625 
Q 56.78125 9.90625 50.3125 4.234375 
Q 43.84375 -1.421875 31.78125 -1.421875 
Q 19.734375 -1.421875 13.25 4.234375 
Q 6.78125 9.90625 6.78125 20.515625 
Q 6.78125 27.484375 10.78125 32.3125 
Q 14.796875 37.15625 21.921875 38.8125 
M 18.3125 54.390625 
Q 18.3125 48.734375 21.84375 45.5625 
Q 25.390625 42.390625 31.78125 42.390625 
Q 38.140625 42.390625 41.71875 45.5625 
Q 45.3125 48.734375 45.3125 54.390625 
Q 45.3125 60.0625 41.71875 63.234375 
Q 38.140625 66.40625 31.78125 66.40625 
Q 25.390625 66.40625 21.84375 63.234375 
Q 18.3125 60.0625 18.3125 54.390625 
" id="BitstreamVeraSans-Roman-38"/>
      </defs>
      <g transform="translate(417.6675 401.918125)scale(0.12 -0.12)">
       <use xlink:href="#BitstreamVeraSans-Roman-38"/>
       <use x="63.623046875" xlink:href="#BitstreamVeraSans-Roman-30"/>
       <use x="127.24609375" xlink:href="#BitstreamVeraSans-Roman-30"/>
      </g>
     </g>
    </g>
    <g id="xtick_6">
     <g id="line2d_14">
      <g>
       <use style="stroke:#000000;stroke-width:0.5;" x="518.4" xlink:href="#m86f966dd6a" y="388.8"/>
      </g>
     </g>
     <g id="line2d_15">
      <g>
       <use style="stroke:#000000;stroke-width:0.5;" x="518.4" xlink:href="#m3cc4d53ce1" y="43.2"/>
      </g>
     </g>
     <g id="text_6">
      <!-- 1000 -->
      <defs>
       <path d="M 12.40625 8.296875 
L 28.515625 8.296875 
L 28.515625 63.921875 
L 10.984375 60.40625 
L 10.984375 69.390625 
L 28.421875 72.90625 
L 38.28125 72.90625 
L 38.28125 8.296875 
L 54.390625 8.296875 
L 54.390625 0 
L 12.40625 0 
z
" id="BitstreamVeraSans-Roman-31"/>
      </defs>
      <g transform="translate(503.13 401.918125)scale(0.12 -0.12)">
       <use xlink:href="#BitstreamVeraSans-Roman-31"/>
       <use x="63.623046875" xlink:href="#BitstreamVeraSans-Roman-30"/>
       <use x="127.24609375" xlink:href="#BitstreamVeraSans-Roman-30"/>
       <use x="190.869140625" xlink:href="#BitstreamVeraSans-Roman-30"/>
      </g>
     </g>
    </g>
    <g id="text_7">
     <!-- Identities -->
     <defs>
      <path d="M 54.890625 33.015625 
L 54.890625 0 
L 45.90625 0 
L 45.90625 32.71875 
Q 45.90625 40.484375 42.875 44.328125 
Q 39.84375 48.1875 33.796875 48.1875 
Q 26.515625 48.1875 22.3125 43.546875 
Q 18.109375 38.921875 18.109375 30.90625 
L 18.109375 0 
L 9.078125 0 
L 9.078125 54.6875 
L 18.109375 54.6875 
L 18.109375 46.1875 
Q 21.34375 51.125 25.703125 53.5625 
Q 30.078125 56 35.796875 56 
Q 45.21875 56 50.046875 50.171875 
Q 54.890625 44.34375 54.890625 33.015625 
" id="BitstreamVeraSans-Roman-6e"/>
      <path d="M 9.421875 54.6875 
L 18.40625 54.6875 
L 18.40625 0 
L 9.421875 0 
z
M 9.421875 75.984375 
L 18.40625 75.984375 
L 18.40625 64.59375 
L 9.421875 64.59375 
z
" id="BitstreamVeraSans-Roman-69"/>
      <path d="M 56.203125 29.59375 
L 56.203125 25.203125 
L 14.890625 25.203125 
Q 15.484375 15.921875 20.484375 11.0625 
Q 25.484375 6.203125 34.421875 6.203125 
Q 39.59375 6.203125 44.453125 7.46875 
Q 49.3125 8.734375 54.109375 11.28125 
L 54.109375 2.78125 
Q 49.265625 0.734375 44.1875 -0.34375 
Q 39.109375 -1.421875 33.890625 -1.421875 
Q 20.796875 -1.421875 13.15625 6.1875 
Q 5.515625 13.8125 5.515625 26.8125 
Q 5.515625 40.234375 12.765625 48.109375 
Q 20.015625 56 32.328125 56 
Q 43.359375 56 49.78125 48.890625 
Q 56.203125 41.796875 56.203125 29.59375 
M 47.21875 32.234375 
Q 47.125 39.59375 43.09375 43.984375 
Q 39.0625 48.390625 32.421875 48.390625 
Q 24.90625 48.390625 20.390625 44.140625 
Q 15.875 39.890625 15.1875 32.171875 
z
" id="BitstreamVeraSans-Roman-65"/>
      <path d="M 45.40625 46.390625 
L 45.40625 75.984375 
L 54.390625 75.984375 
L 54.390625 0 
L 45.40625 0 
L 45.40625 8.203125 
Q 42.578125 3.328125 38.25 0.953125 
Q 33.9375 -1.421875 27.875 -1.421875 
Q 17.96875 -1.421875 11.734375 6.484375 
Q 5.515625 14.40625 5.515625 27.296875 
Q 5.515625 40.1875 11.734375 48.09375 
Q 17.96875 56 27.875 56 
Q 33.9375 56 38.25 53.625 
Q 42.578125 51.265625 45.40625 46.390625 
M 14.796875 27.296875 
Q 14.796875 17.390625 18.875 11.75 
Q 22.953125 6.109375 30.078125 6.109375 
Q 37.203125 6.109375 41.296875 11.75 
Q 45.40625 17.390625 45.40625 27.296875 
Q 45.40625 37.203125 41.296875 42.84375 
Q 37.203125 48.484375 30.078125 48.484375 
Q 22.953125 48.484375 18.875 42.84375 
Q 14.796875 37.203125 14.796875 27.296875 
" id="BitstreamVeraSans-Roman-64"/>
      <path d="M 18.3125 70.21875 
L 18.3125 54.6875 
L 36.8125 54.6875 
L 36.8125 47.703125 
L 18.3125 47.703125 
L 18.3125 18.015625 
Q 18.3125 11.328125 20.140625 9.421875 
Q 21.96875 7.515625 27.59375 7.515625 
L 36.8125 7.515625 
L 36.8125 0 
L 27.59375 0 
Q 17.1875 0 13.234375 3.875 
Q 9.28125 7.765625 9.28125 18.015625 
L 9.28125 47.703125 
L 2.6875 47.703125 
L 2.6875 54.6875 
L 9.28125 54.6875 
L 9.28125 70.21875 
z
" id="BitstreamVeraSans-Roman-74"/>
      <path d="M 44.28125 53.078125 
L 44.28125 44.578125 
Q 40.484375 46.53125 36.375 47.5 
Q 32.28125 48.484375 27.875 48.484375 
Q 21.1875 48.484375 17.84375 46.4375 
Q 14.5 44.390625 14.5 40.28125 
Q 14.5 37.15625 16.890625 35.375 
Q 19.28125 33.59375 26.515625 31.984375 
L 29.59375 31.296875 
Q 39.15625 29.25 43.1875 25.515625 
Q 47.21875 21.78125 47.21875 15.09375 
Q 47.21875 7.46875 41.1875 3.015625 
Q 35.15625 -1.421875 24.609375 -1.421875 
Q 20.21875 -1.421875 15.453125 -0.5625 
Q 10.6875 0.296875 5.421875 2 
L 5.421875 11.28125 
Q 10.40625 8.6875 15.234375 7.390625 
Q 20.0625 6.109375 24.8125 6.109375 
Q 31.15625 6.109375 34.5625 8.28125 
Q 37.984375 10.453125 37.984375 14.40625 
Q 37.984375 18.0625 35.515625 20.015625 
Q 33.0625 21.96875 24.703125 23.78125 
L 21.578125 24.515625 
Q 13.234375 26.265625 9.515625 29.90625 
Q 5.8125 33.546875 5.8125 39.890625 
Q 5.8125 47.609375 11.28125 51.796875 
Q 16.75 56 26.8125 56 
Q 31.78125 56 36.171875 55.265625 
Q 40.578125 54.546875 44.28125 53.078125 
" id="BitstreamVeraSans-Roman-73"/>
      <path d="M 9.8125 72.90625 
L 19.671875 72.90625 
L 19.671875 0 
L 9.8125 0 
z
" id="BitstreamVeraSans-Roman-49"/>
     </defs>
     <g transform="translate(267.2709375 418.531875)scale(0.12 -0.12)">
      <use xlink:href="#BitstreamVeraSans-Roman-49"/>
      <use x="29.4921875" xlink:href="#BitstreamVeraSans-Roman-64"/>
      <use x="92.96875" xlink:href="#BitstreamVeraSans-Roman-65"/>
      <use x="154.4921875" xlink:href="#BitstreamVeraSans-Roman-6e"/>
      <use x="217.87109375" xlink:href="#BitstreamVeraSans-Roman-74"/>
      <use x="257.080078125" xlink:href="#BitstreamVeraSans-Roman-69"/>
      <use x="284.86328125" xlink:href="#BitstreamVeraSans-Roman-74"/>
      <use x="324.072265625" xlink:href="#BitstreamVeraSans-Roman-69"/>
      <use x="351.85546875" xlink:href="#BitstreamVeraSans-Roman-65"/>
      <use x="413.37890625" xlink:href="#BitstreamVeraSans-Roman-73"/>
     </g>
    </g>
   </g>
   <g id="matplotlib.axis_2">
    <g id="ytick_1">
     <g id="line2d_16">
      <defs>
       <path d="M 0 0 
L 4 0 
" id="mddc1fc3aad" style="stroke:#000000;stroke-width:0.5;"/>
      </defs>
      <g>
       <use style="stroke:#000000;stroke-width:0.5;" x="72.0" xlink:href="#mddc1fc3aad" y="388.8"/>
      </g>
     </g>
     <g id="line2d_17">
      <defs>
       <path d="M 0 0 
L -4 0 
" id="m35fbe9e54a" style="stroke:#000000;stroke-width:0.5;"/>
      </defs>
      <g>
       <use style="stroke:#000000;stroke-width:0.5;" x="518.4" xlink:href="#m35fbe9e54a" y="388.8"/>
      </g>
     </g>
     <g id="text_8">
      <!-- 0.0 -->
      <defs>
       <path d="M 10.6875 12.40625 
L 21 12.40625 
L 21 0 
L 10.6875 0 
z
" id="BitstreamVeraSans-Roman-2e"/>
      </defs>
      <g transform="translate(48.91625 392.11125)scale(0.12 -0.12)">
       <use xlink:href="#BitstreamVeraSans-Roman-30"/>
       <use x="63.623046875" xlink:href="#BitstreamVeraSans-Roman-2e"/>
       <use x="95.41015625" xlink:href="#BitstreamVeraSans-Roman-30"/>
      </g>
     </g>
    </g>
    <g id="ytick_2">
     <g id="line2d_18">
      <g>
       <use style="stroke:#000000;stroke-width:0.5;" x="72.0" xlink:href="#mddc1fc3aad" y="319.68"/>
      </g>
     </g>
     <g id="line2d_19">
      <g>
       <use style="stroke:#000000;stroke-width:0.5;" x="518.4" xlink:href="#m35fbe9e54a" y="319.68"/>
      </g>
     </g>
     <g id="text_9">
      <!-- 0.2 -->
      <g transform="translate(48.91625 322.99125)scale(0.12 -0.12)">
       <use xlink:href="#BitstreamVeraSans-Roman-30"/>
       <use x="63.623046875" xlink:href="#BitstreamVeraSans-Roman-2e"/>
       <use x="95.41015625" xlink:href="#BitstreamVeraSans-Roman-32"/>
      </g>
     </g>
    </g>
    <g id="ytick_3">
     <g id="line2d_20">
      <g>
       <use style="stroke:#000000;stroke-width:0.5;" x="72.0" xlink:href="#mddc1fc3aad" y="250.56"/>
      </g>
     </g>
     <g id="line2d_21">
      <g>
       <use style="stroke:#000000;stroke-width:0.5;" x="518.4" xlink:href="#m35fbe9e54a" y="250.56"/>
      </g>
     </g>
     <g id="text_10">
      <!-- 0.4 -->
      <g transform="translate(48.91625 253.87125)scale(0.12 -0.12)">
       <use xlink:href="#BitstreamVeraSans-Roman-30"/>
       <use x="63.623046875" xlink:href="#BitstreamVeraSans-Roman-2e"/>
       <use x="95.41015625" xlink:href="#BitstreamVeraSans-Roman-34"/>
      </g>
     </g>
    </g>
    <g id="ytick_4">
     <g id="line2d_22">
      <g>
       <use style="stroke:#000000;stroke-width:0.5;" x="72.0" xlink:href="#mddc1fc3aad" y="181.44"/>
      </g>
     </g>
     <g id="line2d_23">
      <g>
       <use style="stroke:#000000;stroke-width:0.5;" x="518.4" xlink:href="#m35fbe9e54a" y="181.44"/>
      </g>
     </g>
     <g id="text_11">
      <!-- 0.6 -->
      <g transform="translate(48.91625 184.75125)scale(0.12 -0.12)">
       <use xlink:href="#BitstreamVeraSans-Roman-30"/>
       <use x="63.623046875" xlink:href="#BitstreamVeraSans-Roman-2e"/>
       <use x="95.41015625" xlink:href="#BitstreamVeraSans-Roman-36"/>
      </g>
     </g>
    </g>
    <g id="ytick_5">
     <g id="line2d_24">
      <g>
       <use style="stroke:#000000;stroke-width:0.5;" x="72.0" xlink:href="#mddc1fc3aad" y="112.32"/>
      </g>
     </g>
     <g id="line2d_25">
      <g>
       <use style="stroke:#000000;stroke-width:0.5;" x="518.4" xlink:href="#m35fbe9e54a" y="112.32"/>
      </g>
     </g>
     <g id="text_12">
      <!-- 0.8 -->
      <g transform="translate(48.91625 115.63125)scale(0.12 -0.12)">
       <use xlink:href="#BitstreamVeraSans-Roman-30"/>
       <use x="63.623046875" xlink:href="#BitstreamVeraSans-Roman-2e"/>
       <use x="95.41015625" xlink:href="#BitstreamVeraSans-Roman-38"/>
      </g>
     </g>
    </g>
    <g id="ytick_6">
     <g id="line2d_26">
      <g>
       <use style="stroke:#000000;stroke-width:0.5;" x="72.0" xlink:href="#mddc1fc3aad" y="43.2"/>
      </g>
     </g>
     <g id="line2d_27">
      <g>
       <use style="stroke:#000000;stroke-width:0.5;" x="518.4" xlink:href="#m35fbe9e54a" y="43.2"/>
      </g>
     </g>
     <g id="text_13">
      <!-- 1.0 -->
      <g transform="translate(48.91625 46.51125)scale(0.12 -0.12)">
       <use xlink:href="#BitstreamVeraSans-Roman-31"/>
       <use x="63.623046875" xlink:href="#BitstreamVeraSans-Roman-2e"/>
       <use x="95.41015625" xlink:href="#BitstreamVeraSans-Roman-30"/>
      </g>
     </g>
    </g>
    <g id="text_14">
     <!-- Informativeness (fraction) -->
     <defs>
      <path id="BitstreamVeraSans-Roman-20"/>
      <path d="M 41.109375 46.296875 
Q 39.59375 47.171875 37.8125 47.578125 
Q 36.03125 48 33.890625 48 
Q 26.265625 48 22.1875 43.046875 
Q 18.109375 38.09375 18.109375 28.8125 
L 18.109375 0 
L 9.078125 0 
L 9.078125 54.6875 
L 18.109375 54.6875 
L 18.109375 46.1875 
Q 20.953125 51.171875 25.484375 53.578125 
Q 30.03125 56 36.53125 56 
Q 37.453125 56 38.578125 55.875 
Q 39.703125 55.765625 41.0625 55.515625 
z
" id="BitstreamVeraSans-Roman-72"/>
      <path d="M 52 44.1875 
Q 55.375 50.25 60.0625 53.125 
Q 64.75 56 71.09375 56 
Q 79.640625 56 84.28125 50.015625 
Q 88.921875 44.046875 88.921875 33.015625 
L 88.921875 0 
L 79.890625 0 
L 79.890625 32.71875 
Q 79.890625 40.578125 77.09375 44.375 
Q 74.3125 48.1875 68.609375 48.1875 
Q 61.625 48.1875 57.5625 43.546875 
Q 53.515625 38.921875 53.515625 30.90625 
L 53.515625 0 
L 44.484375 0 
L 44.484375 32.71875 
Q 44.484375 40.625 41.703125 44.40625 
Q 38.921875 48.1875 33.109375 48.1875 
Q 26.21875 48.1875 22.15625 43.53125 
Q 18.109375 38.875 18.109375 30.90625 
L 18.109375 0 
L 9.078125 0 
L 9.078125 54.6875 
L 18.109375 54.6875 
L 18.109375 46.1875 
Q 21.1875 51.21875 25.484375 53.609375 
Q 29.78125 56 35.6875 56 
Q 41.65625 56 45.828125 52.96875 
Q 50 49.953125 52 44.1875 
" id="BitstreamVeraSans-Roman-6d"/>
      <path d="M 30.609375 48.390625 
Q 23.390625 48.390625 19.1875 42.75 
Q 14.984375 37.109375 14.984375 27.296875 
Q 14.984375 17.484375 19.15625 11.84375 
Q 23.34375 6.203125 30.609375 6.203125 
Q 37.796875 6.203125 41.984375 11.859375 
Q 46.1875 17.53125 46.1875 27.296875 
Q 46.1875 37.015625 41.984375 42.703125 
Q 37.796875 48.390625 30.609375 48.390625 
M 30.609375 56 
Q 42.328125 56 49.015625 48.375 
Q 55.71875 40.765625 55.71875 27.296875 
Q 55.71875 13.875 49.015625 6.21875 
Q 42.328125 -1.421875 30.609375 -1.421875 
Q 18.84375 -1.421875 12.171875 6.21875 
Q 5.515625 13.875 5.515625 27.296875 
Q 5.515625 40.765625 12.171875 48.375 
Q 18.84375 56 30.609375 56 
" id="BitstreamVeraSans-Roman-6f"/>
      <path d="M 8.015625 75.875 
L 15.828125 75.875 
Q 23.140625 64.359375 26.78125 53.3125 
Q 30.421875 42.28125 30.421875 31.390625 
Q 30.421875 20.453125 26.78125 9.375 
Q 23.140625 -1.703125 15.828125 -13.1875 
L 8.015625 -13.1875 
Q 14.5 -2 17.703125 9.0625 
Q 20.90625 20.125 20.90625 31.390625 
Q 20.90625 42.671875 17.703125 53.65625 
Q 14.5 64.65625 8.015625 75.875 
" id="BitstreamVeraSans-Roman-29"/>
      <path d="M 31 75.875 
Q 24.46875 64.65625 21.28125 53.65625 
Q 18.109375 42.671875 18.109375 31.390625 
Q 18.109375 20.125 21.3125 9.0625 
Q 24.515625 -2 31 -13.1875 
L 23.1875 -13.1875 
Q 15.875 -1.703125 12.234375 9.375 
Q 8.59375 20.453125 8.59375 31.390625 
Q 8.59375 42.28125 12.203125 53.3125 
Q 15.828125 64.359375 23.1875 75.875 
z
" id="BitstreamVeraSans-Roman-28"/>
      <path d="M 2.984375 54.6875 
L 12.5 54.6875 
L 29.59375 8.796875 
L 46.6875 54.6875 
L 56.203125 54.6875 
L 35.6875 0 
L 23.484375 0 
z
" id="BitstreamVeraSans-Roman-76"/>
      <path d="M 37.109375 75.984375 
L 37.109375 68.5 
L 28.515625 68.5 
Q 23.6875 68.5 21.796875 66.546875 
Q 19.921875 64.59375 19.921875 59.515625 
L 19.921875 54.6875 
L 34.71875 54.6875 
L 34.71875 47.703125 
L 19.921875 47.703125 
L 19.921875 0 
L 10.890625 0 
L 10.890625 47.703125 
L 2.296875 47.703125 
L 2.296875 54.6875 
L 10.890625 54.6875 
L 10.890625 58.5 
Q 10.890625 67.625 15.140625 71.796875 
Q 19.390625 75.984375 28.609375 75.984375 
z
" id="BitstreamVeraSans-Roman-66"/>
      <path d="M 34.28125 27.484375 
Q 23.390625 27.484375 19.1875 25 
Q 14.984375 22.515625 14.984375 16.5 
Q 14.984375 11.71875 18.140625 8.90625 
Q 21.296875 6.109375 26.703125 6.109375 
Q 34.1875 6.109375 38.703125 11.40625 
Q 43.21875 16.703125 43.21875 25.484375 
L 43.21875 27.484375 
z
M 52.203125 31.203125 
L 52.203125 0 
L 43.21875 0 
L 43.21875 8.296875 
Q 40.140625 3.328125 35.546875 0.953125 
Q 30.953125 -1.421875 24.3125 -1.421875 
Q 15.921875 -1.421875 10.953125 3.296875 
Q 6 8.015625 6 15.921875 
Q 6 25.140625 12.171875 29.828125 
Q 18.359375 34.515625 30.609375 34.515625 
L 43.21875 34.515625 
L 43.21875 35.40625 
Q 43.21875 41.609375 39.140625 45 
Q 35.0625 48.390625 27.6875 48.390625 
Q 23 48.390625 18.546875 47.265625 
Q 14.109375 46.140625 10.015625 43.890625 
L 10.015625 52.203125 
Q 14.9375 54.109375 19.578125 55.046875 
Q 24.21875 56 28.609375 56 
Q 40.484375 56 46.34375 49.84375 
Q 52.203125 43.703125 52.203125 31.203125 
" id="BitstreamVeraSans-Roman-61"/>
      <path d="M 48.78125 52.59375 
L 48.78125 44.1875 
Q 44.96875 46.296875 41.140625 47.34375 
Q 37.3125 48.390625 33.40625 48.390625 
Q 24.65625 48.390625 19.8125 42.84375 
Q 14.984375 37.3125 14.984375 27.296875 
Q 14.984375 17.28125 19.8125 11.734375 
Q 24.65625 6.203125 33.40625 6.203125 
Q 37.3125 6.203125 41.140625 7.25 
Q 44.96875 8.296875 48.78125 10.40625 
L 48.78125 2.09375 
Q 45.015625 0.34375 40.984375 -0.53125 
Q 36.96875 -1.421875 32.421875 -1.421875 
Q 20.0625 -1.421875 12.78125 6.34375 
Q 5.515625 14.109375 5.515625 27.296875 
Q 5.515625 40.671875 12.859375 48.328125 
Q 20.21875 56 33.015625 56 
Q 37.15625 56 41.109375 55.140625 
Q 45.0625 54.296875 48.78125 52.59375 
" id="BitstreamVeraSans-Roman-63"/>
     </defs>
     <g transform="translate(41.420625 293.986875)rotate(-90.0)scale(0.12 -0.12)">
      <use xlink:href="#BitstreamVeraSans-Roman-49"/>
      <use x="29.4921875" xlink:href="#BitstreamVeraSans-Roman-6e"/>
      <use x="92.87109375" xlink:href="#BitstreamVeraSans-Roman-66"/>
      <use x="128.076171875" xlink:href="#BitstreamVeraSans-Roman-6f"/>
      <use x="189.2578125" xlink:href="#BitstreamVeraSans-Roman-72"/>
      <use x="230.35546875" xlink:href="#BitstreamVeraSans-Roman-6d"/>
      <use x="327.767578125" xlink:href="#BitstreamVeraSans-Roman-61"/>
      <use x="389.046875" xlink:href="#BitstreamVeraSans-Roman-74"/>
      <use x="428.255859375" xlink:href="#BitstreamVeraSans-Roman-69"/>
      <use x="456.0390625" xlink:href="#BitstreamVeraSans-Roman-76"/>
      <use x="515.21875" xlink:href="#BitstreamVeraSans-Roman-65"/>
      <use x="576.7421875" xlink:href="#BitstreamVeraSans-Roman-6e"/>
      <use x="640.12109375" xlink:href="#BitstreamVeraSans-Roman-65"/>
      <use x="701.64453125" xlink:href="#BitstreamVeraSans-Roman-73"/>
      <use x="753.744140625" xlink:href="#BitstreamVeraSans-Roman-73"/>
      <use x="805.84375" xlink:href="#BitstreamVeraSans-Roman-20"/>
      <use x="837.630859375" xlink:href="#BitstreamVeraSans-Roman-28"/>
      <use x="876.64453125" xlink:href="#BitstreamVeraSans-Roman-66"/>
      <use x="911.849609375" xlink:href="#BitstreamVeraSans-Roman-72"/>
      <use x="952.962890625" xlink:href="#BitstreamVeraSans-Roman-61"/>
      <use x="1014.2421875" xlink:href="#BitstreamVeraSans-Roman-63"/>
      <use x="1069.22265625" xlink:href="#BitstreamVeraSans-Roman-74"/>
      <use x="1108.43164062" xlink:href="#BitstreamVeraSans-Roman-69"/>
      <use x="1136.21484375" xlink:href="#BitstreamVeraSans-Roman-6f"/>
      <use x="1197.39648438" xlink:href="#BitstreamVeraSans-Roman-6e"/>
      <use x="1260.77539062" xlink:href="#BitstreamVeraSans-Roman-29"/>
     </g>
    </g>
   </g>
   <g id="text_15">
    <!-- Informativeness curves for different alpha -->
    <defs>
     <path d="M 8.5 21.578125 
L 8.5 54.6875 
L 17.484375 54.6875 
L 17.484375 21.921875 
Q 17.484375 14.15625 20.5 10.265625 
Q 23.53125 6.390625 29.59375 6.390625 
Q 36.859375 6.390625 41.078125 11.03125 
Q 45.3125 15.671875 45.3125 23.6875 
L 45.3125 54.6875 
L 54.296875 54.6875 
L 54.296875 0 
L 45.3125 0 
L 45.3125 8.40625 
Q 42.046875 3.421875 37.71875 1 
Q 33.40625 -1.421875 27.6875 -1.421875 
Q 18.265625 -1.421875 13.375 4.4375 
Q 8.5 10.296875 8.5 21.578125 
" id="BitstreamVeraSans-Roman-75"/>
     <path d="M 18.109375 8.203125 
L 18.109375 -20.796875 
L 9.078125 -20.796875 
L 9.078125 54.6875 
L 18.109375 54.6875 
L 18.109375 46.390625 
Q 20.953125 51.265625 25.265625 53.625 
Q 29.59375 56 35.59375 56 
Q 45.5625 56 51.78125 48.09375 
Q 58.015625 40.1875 58.015625 27.296875 
Q 58.015625 14.40625 51.78125 6.484375 
Q 45.5625 -1.421875 35.59375 -1.421875 
Q 29.59375 -1.421875 25.265625 0.953125 
Q 20.953125 3.328125 18.109375 8.203125 
M 48.6875 27.296875 
Q 48.6875 37.203125 44.609375 42.84375 
Q 40.53125 48.484375 33.40625 48.484375 
Q 26.265625 48.484375 22.1875 42.84375 
Q 18.109375 37.203125 18.109375 27.296875 
Q 18.109375 17.390625 22.1875 11.75 
Q 26.265625 6.109375 33.40625 6.109375 
Q 40.53125 6.109375 44.609375 11.75 
Q 48.6875 17.390625 48.6875 27.296875 
" id="BitstreamVeraSans-Roman-70"/>
     <path d="M 9.421875 75.984375 
L 18.40625 75.984375 
L 18.40625 0 
L 9.421875 0 
z
" id="BitstreamVeraSans-Roman-6c"/>
     <path d="M 54.890625 33.015625 
L 54.890625 0 
L 45.90625 0 
L 45.90625 32.71875 
Q 45.90625 40.484375 42.875 44.328125 
Q 39.84375 48.1875 33.796875 48.1875 
Q 26.515625 48.1875 22.3125 43.546875 
Q 18.109375 38.921875 18.109375 30.90625 
L 18.109375 0 
L 9.078125 0 
L 9.078125 75.984375 
L 18.109375 75.984375 
L 18.109375 46.1875 
Q 21.34375 51.125 25.703125 53.5625 
Q 30.078125 56 35.796875 56 
Q 45.21875 56 50.046875 50.171875 
Q 54.890625 44.34375 54.890625 33.015625 
" id="BitstreamVeraSans-Roman-68"/>
    </defs>
    <g transform="translate(143.39925 38.2)scale(0.144 -0.144)">
     <use xlink:href="#BitstreamVeraSans-Roman-49"/>
     <use x="29.4921875" xlink:href="#BitstreamVeraSans-Roman-6e"/>
     <use x="92.87109375" xlink:href="#BitstreamVeraSans-Roman-66"/>
     <use x="128.076171875" xlink:href="#BitstreamVeraSans-Roman-6f"/>
     <use x="189.2578125" xlink:href="#BitstreamVeraSans-Roman-72"/>
     <use x="230.35546875" xlink:href="#BitstreamVeraSans-Roman-6d"/>
     <use x="327.767578125" xlink:href="#BitstreamVeraSans-Roman-61"/>
     <use x="389.046875" xlink:href="#BitstreamVeraSans-Roman-74"/>
     <use x="428.255859375" xlink:href="#BitstreamVeraSans-Roman-69"/>
     <use x="456.0390625" xlink:href="#BitstreamVeraSans-Roman-76"/>
     <use x="515.21875" xlink:href="#BitstreamVeraSans-Roman-65"/>
     <use x="576.7421875" xlink:href="#BitstreamVeraSans-Roman-6e"/>
     <use x="640.12109375" xlink:href="#BitstreamVeraSans-Roman-65"/>
     <use x="701.64453125" xlink:href="#BitstreamVeraSans-Roman-73"/>
     <use x="753.744140625" xlink:href="#BitstreamVeraSans-Roman-73"/>
     <use x="805.84375" xlink:href="#BitstreamVeraSans-Roman-20"/>
     <use x="837.630859375" xlink:href="#BitstreamVeraSans-Roman-63"/>
     <use x="892.611328125" xlink:href="#BitstreamVeraSans-Roman-75"/>
     <use x="955.990234375" xlink:href="#BitstreamVeraSans-Roman-72"/>
     <use x="997.103515625" xlink:href="#BitstreamVeraSans-Roman-76"/>
     <use x="1056.28320312" xlink:href="#BitstreamVeraSans-Roman-65"/>
     <use x="1117.80664062" xlink:href="#BitstreamVeraSans-Roman-73"/>
     <use x="1169.90625" xlink:href="#BitstreamVeraSans-Roman-20"/>
     <use x="1201.69335938" xlink:href="#BitstreamVeraSans-Roman-66"/>
     <use x="1236.8984375" xlink:href="#BitstreamVeraSans-Roman-6f"/>
     <use x="1298.08007812" xlink:href="#BitstreamVeraSans-Roman-72"/>
     <use x="1339.19335938" xlink:href="#BitstreamVeraSans-Roman-20"/>
     <use x="1370.98046875" xlink:href="#BitstreamVeraSans-Roman-64"/>
     <use x="1434.45703125" xlink:href="#BitstreamVeraSans-Roman-69"/>
     <use x="1462.24023438" xlink:href="#BitstreamVeraSans-Roman-66"/>
     <use x="1497.4453125" xlink:href="#BitstreamVeraSans-Roman-66"/>
     <use x="1532.65039062" xlink:href="#BitstreamVeraSans-Roman-65"/>
     <use x="1594.17382812" xlink:href="#BitstreamVeraSans-Roman-72"/>
     <use x="1635.25585938" xlink:href="#BitstreamVeraSans-Roman-65"/>
     <use x="1696.77929688" xlink:href="#BitstreamVeraSans-Roman-6e"/>
     <use x="1760.15820312" xlink:href="#BitstreamVeraSans-Roman-74"/>
     <use x="1799.3671875" xlink:href="#BitstreamVeraSans-Roman-20"/>
     <use x="1831.15429688" xlink:href="#BitstreamVeraSans-Roman-61"/>
     <use x="1892.43359375" xlink:href="#BitstreamVeraSans-Roman-6c"/>
     <use x="1920.21679688" xlink:href="#BitstreamVeraSans-Roman-70"/>
     <use x="1983.69335938" xlink:href="#BitstreamVeraSans-Roman-68"/>
     <use x="2047.07226562" xlink:href="#BitstreamVeraSans-Roman-61"/>
    </g>
   </g>
  </g>
 </g>
 <defs>
  <clipPath id="pec4f3fca39">
   <rect height="345.6" width="446.4" x="72.0" y="43.2"/>
  </clipPath>
 </defs>
</svg>
